<?xml version="1.0" encoding="UTF-8" standalone="no"?><svg xmlns="http://www.w3.org/2000/svg" xmlns:xlink="http://www.w3.org/1999/xlink" contentStyleType="text/css" height="734px" preserveAspectRatio="none" style="width:1428px;height:734px;background:#FFFFFF;" version="1.1" viewBox="0 0 1428 734" width="1428px" zoomAndPan="magnify"><defs/><g><text fill="#000000" font-family="sans-serif" font-size="14" font-weight="bold" lengthAdjust="spacing" textLength="342" x="536" y="26.0439">Agile Project Management System Domain Model</text><!--cluster ProductManagement--><g id="cluster_ProductManagement"><path d="M674.5,249.1201 L821.5,249.1201 A3.75,3.75 0 0 1 824,251.6201 L831,274.2402 L979.5,274.2402 A2.5,2.5 0 0 1 982,276.7402 L982,724.6201 A2.5,2.5 0 0 1 979.5,727.1201 L674.5,727.1201 A2.5,2.5 0 0 1 672,724.6201 L672,251.6201 A2.5,2.5 0 0 1 674.5,249.1201 " fill="none" style="stroke:#000000;stroke-width:1.5;"/><line style="stroke:#000000;stroke-width:1.5;" x1="672" x2="831" y1="274.2402" y2="274.2402"/><text fill="#000000" font-family="sans-serif" font-size="14" font-weight="bold" lengthAdjust="spacing" textLength="146" x="676" y="267.1641">ProductManagement</text></g><!--cluster SprintManagement--><g id="cluster_SprintManagement"><path d="M1008.5,230.1201 L1142.5,230.1201 A3.75,3.75 0 0 1 1145,232.6201 L1152,255.2402 L1418.5,255.2402 A2.5,2.5 0 0 1 1421,257.7402 L1421,463.6201 A2.5,2.5 0 0 1 1418.5,466.1201 L1008.5,466.1201 A2.5,2.5 0 0 1 1006,463.6201 L1006,232.6201 A2.5,2.5 0 0 1 1008.5,230.1201 " fill="none" style="stroke:#000000;stroke-width:1.5;"/><line style="stroke:#000000;stroke-width:1.5;" x1="1006" x2="1152" y1="255.2402" y2="255.2402"/><text fill="#000000" font-family="sans-serif" font-size="14" font-weight="bold" lengthAdjust="spacing" textLength="133" x="1010" y="248.1641">SprintManagement</text></g><!--cluster PersonnelManagement--><g id="cluster_PersonnelManagement"><path d="M8.5,46.1201 L172.5,46.1201 A3.75,3.75 0 0 1 175,48.6201 L182,71.2402 L645.5,71.2402 A2.5,2.5 0 0 1 648,73.7402 L648,686.1201 A2.5,2.5 0 0 1 645.5,688.6201 L8.5,688.6201 A2.5,2.5 0 0 1 6,686.1201 L6,48.6201 A2.5,2.5 0 0 1 8.5,46.1201 " fill="none" style="stroke:#000000;stroke-width:1.5;"/><line style="stroke:#000000;stroke-width:1.5;" x1="6" x2="182" y1="71.2402" y2="71.2402"/><text fill="#000000" font-family="sans-serif" font-size="14" font-weight="bold" lengthAdjust="spacing" textLength="163" x="10" y="64.1641">PersonnelManagement</text></g><!--class Product--><g id="elem_Product"><rect codeLine="4" fill="#F1F1F1" height="143.6006" id="Product" rx="2.5" ry="2.5" style="stroke:#181818;stroke-width:0.5;" width="276" x="688" y="287.1201"/><ellipse cx="797.25" cy="303.1201" fill="#ADD1B2" rx="11" ry="11" style="stroke:#181818;stroke-width:1.0;"/><path d="M795.8281,308.4795 Q793.9688,308.4795 792.875,307.0889 Q791.7813,305.6982 791.7813,302.7139 Q791.7813,300.1826 792.9453,298.5264 Q794.1094,296.8701 796.0938,296.8701 Q797.5625,296.8701 798.0313,296.9951 Q798.5,297.1982 798.5,297.1982 Q798.5,297.1982 798.5,297.1279 Q798.5,297.0576 799.1094,296.1357 L800.1563,299.792 L798.8281,300.1982 Q798.3594,298.6514 797.6953,297.9873 Q797.0313,297.3232 795.9688,297.3232 Q795.5781,297.3232 794.8125,298.8545 Q794.0469,300.3857 794.0469,302.6357 Q794.0469,305.1045 794.7109,306.4951 Q795.375,307.8857 795.9063,307.8857 Q796.9688,307.8857 797.7266,307.1201 Q798.4844,306.3545 798.8281,304.6982 L800.1563,305.292 Q799.8281,306.6982 798.9297,307.5889 Q798.0313,308.4795 795.8281,308.4795 Z " fill="#000000"/><text fill="#000000" font-family="sans-serif" font-size="14" lengthAdjust="spacing" textLength="49" x="817.75" y="309.604">Product</text><line style="stroke:#181818;stroke-width:0.5;" x1="689" x2="963" y1="319.1201" y2="319.1201"/><rect fill="none" height="6" style="stroke:#C82930;stroke-width:1.0;" width="6" x="696" y="331.1802"/><text fill="#000000" font-family="sans-serif" font-size="14" lengthAdjust="spacing" textLength="80" x="708" y="339.1641">name: String</text><rect fill="none" height="6" style="stroke:#C82930;stroke-width:1.0;" width="6" x="696" y="350.3003"/><text fill="#000000" font-family="sans-serif" font-size="14" lengthAdjust="spacing" textLength="157" x="708" y="358.2842">backlog: List&lt;UserStory&gt;</text><line style="stroke:#181818;stroke-width:0.5;" x1="689" x2="963" y1="365.3604" y2="365.3604"/><ellipse cx="699" cy="380.4204" fill="#84BE84" rx="3" ry="3" style="stroke:#038048;stroke-width:1.0;"/><text fill="#000000" font-family="sans-serif" font-size="14" lengthAdjust="spacing" textLength="227" x="708" y="385.4043">addUserStory(userStory: UserStory)</text><ellipse cx="699" cy="399.5405" fill="#84BE84" rx="3" ry="3" style="stroke:#038048;stroke-width:1.0;"/><text fill="#000000" font-family="sans-serif" font-size="14" lengthAdjust="spacing" textLength="250" x="708" y="404.5244">removeUserStory(userStory: UserStory)</text><ellipse cx="699" cy="418.6606" fill="#84BE84" rx="3" ry="3" style="stroke:#038048;stroke-width:1.0;"/><text fill="#000000" font-family="sans-serif" font-size="14" lengthAdjust="spacing" textLength="167" x="708" y="423.6445">sortUserStoriesByPriority()</text></g><!--class UserStory--><g id="elem_UserStory"><rect codeLine="12" fill="#F1F1F1" height="200.9609" id="UserStory" rx="2.5" ry="2.5" style="stroke:#181818;stroke-width:0.5;" width="277" x="688.5" y="510.1201"/><ellipse cx="791.75" cy="526.1201" fill="#ADD1B2" rx="11" ry="11" style="stroke:#181818;stroke-width:1.0;"/><path d="M790.3281,531.4795 Q788.4688,531.4795 787.375,530.0889 Q786.2813,528.6982 786.2813,525.7139 Q786.2813,523.1826 787.4453,521.5264 Q788.6094,519.8701 790.5938,519.8701 Q792.0625,519.8701 792.5313,519.9951 Q793,520.1982 793,520.1982 Q793,520.1982 793,520.1279 Q793,520.0576 793.6094,519.1357 L794.6563,522.792 L793.3281,523.1982 Q792.8594,521.6514 792.1953,520.9873 Q791.5313,520.3232 790.4688,520.3232 Q790.0781,520.3232 789.3125,521.8545 Q788.5469,523.3857 788.5469,525.6357 Q788.5469,528.1045 789.2109,529.4951 Q789.875,530.8857 790.4063,530.8857 Q791.4688,530.8857 792.2266,530.1201 Q792.9844,529.3545 793.3281,527.6982 L794.6563,528.292 Q794.3281,529.6982 793.4297,530.5889 Q792.5313,531.4795 790.3281,531.4795 Z " fill="#000000"/><text fill="#000000" font-family="sans-serif" font-size="14" lengthAdjust="spacing" textLength="62" x="812.25" y="532.604">UserStory</text><line style="stroke:#181818;stroke-width:0.5;" x1="689.5" x2="964.5" y1="542.1201" y2="542.1201"/><rect fill="none" height="6" style="stroke:#C82930;stroke-width:1.0;" width="6" x="696.5" y="554.1802"/><text fill="#000000" font-family="sans-serif" font-size="14" lengthAdjust="spacing" textLength="114" x="708.5" y="562.1641">description: String</text><rect fill="none" height="6" style="stroke:#C82930;stroke-width:1.0;" width="6" x="696.5" y="573.3003"/><text fill="#000000" font-family="sans-serif" font-size="14" lengthAdjust="spacing" textLength="202" x="708.5" y="581.2842">acceptanceCriteria: List&lt;String&gt;</text><rect fill="none" height="6" style="stroke:#C82930;stroke-width:1.0;" width="6" x="696.5" y="592.4204"/><text fill="#000000" font-family="sans-serif" font-size="14" lengthAdjust="spacing" textLength="93" x="708.5" y="600.4043">storyPoints: int</text><rect fill="none" height="6" style="stroke:#C82930;stroke-width:1.0;" width="6" x="696.5" y="611.5405"/><text fill="#000000" font-family="sans-serif" font-size="14" lengthAdjust="spacing" textLength="66" x="708.5" y="619.5244">priority: int</text><rect fill="none" height="6" style="stroke:#C82930;stroke-width:1.0;" width="6" x="696.5" y="630.6606"/><text fill="#000000" font-family="sans-serif" font-size="14" lengthAdjust="spacing" textLength="86" x="708.5" y="638.6445">status: Status</text><rect fill="none" height="6" style="stroke:#C82930;stroke-width:1.0;" width="6" x="696.5" y="649.7808"/><text fill="#000000" font-family="sans-serif" font-size="14" lengthAdjust="spacing" textLength="130" x="708.5" y="657.7646">assignee: Developer</text><line style="stroke:#181818;stroke-width:0.5;" x1="689.5" x2="964.5" y1="664.8408" y2="664.8408"/><ellipse cx="699.5" cy="679.9009" fill="#84BE84" rx="3" ry="3" style="stroke:#038048;stroke-width:1.0;"/><text fill="#000000" font-family="sans-serif" font-size="14" lengthAdjust="spacing" textLength="183" x="708.5" y="684.8848">changeStatus(status: Status)</text><ellipse cx="699.5" cy="699.021" fill="#84BE84" rx="3" ry="3" style="stroke:#038048;stroke-width:1.0;"/><text fill="#000000" font-family="sans-serif" font-size="14" lengthAdjust="spacing" textLength="251" x="708.5" y="704.0049">changeAssignee(developer: Developer)</text></g><!--class Sprint--><g id="elem_Sprint"><rect codeLine="25" fill="#F1F1F1" height="181.8408" id="Sprint" rx="2.5" ry="2.5" style="stroke:#181818;stroke-width:0.5;" width="276" x="1129" y="268.1201"/><ellipse cx="1244.25" cy="284.1201" fill="#ADD1B2" rx="11" ry="11" style="stroke:#181818;stroke-width:1.0;"/><path d="M1242.8281,289.4795 Q1240.9688,289.4795 1239.875,288.0889 Q1238.7813,286.6982 1238.7813,283.7139 Q1238.7813,281.1826 1239.9453,279.5264 Q1241.1094,277.8701 1243.0938,277.8701 Q1244.5625,277.8701 1245.0313,277.9951 Q1245.5,278.1982 1245.5,278.1982 Q1245.5,278.1982 1245.5,278.1279 Q1245.5,278.0576 1246.1094,277.1357 L1247.1563,280.792 L1245.8281,281.1982 Q1245.3594,279.6514 1244.6953,278.9873 Q1244.0313,278.3232 1242.9688,278.3232 Q1242.5781,278.3232 1241.8125,279.8545 Q1241.0469,281.3857 1241.0469,283.6357 Q1241.0469,286.1045 1241.7109,287.4951 Q1242.375,288.8857 1242.9063,288.8857 Q1243.9688,288.8857 1244.7266,288.1201 Q1245.4844,287.3545 1245.8281,285.6982 L1247.1563,286.292 Q1246.8281,287.6982 1245.9297,288.5889 Q1245.0313,289.4795 1242.8281,289.4795 Z " fill="#000000"/><text fill="#000000" font-family="sans-serif" font-size="14" lengthAdjust="spacing" textLength="37" x="1264.75" y="290.604">Sprint</text><line style="stroke:#181818;stroke-width:0.5;" x1="1130" x2="1404" y1="300.1201" y2="300.1201"/><rect fill="none" height="6" style="stroke:#C82930;stroke-width:1.0;" width="6" x="1137" y="312.1802"/><text fill="#000000" font-family="sans-serif" font-size="14" lengthAdjust="spacing" textLength="80" x="1149" y="320.1641">name: String</text><rect fill="none" height="6" style="stroke:#C82930;stroke-width:1.0;" width="6" x="1137" y="331.3003"/><text fill="#000000" font-family="sans-serif" font-size="14" lengthAdjust="spacing" textLength="75" x="1149" y="339.2842">capacity: int</text><rect fill="none" height="6" style="stroke:#C82930;stroke-width:1.0;" width="6" x="1137" y="350.4204"/><text fill="#000000" font-family="sans-serif" font-size="14" lengthAdjust="spacing" textLength="157" x="1149" y="358.4043">backlog: List&lt;UserStory&gt;</text><rect fill="none" height="6" style="stroke:#C82930;stroke-width:1.0;" width="6" x="1137" y="369.5405"/><text fill="#000000" font-family="sans-serif" font-size="14" lengthAdjust="spacing" textLength="75" x="1149" y="377.5244">team: Team</text><line style="stroke:#181818;stroke-width:0.5;" x1="1130" x2="1404" y1="384.6006" y2="384.6006"/><ellipse cx="1140" cy="399.6606" fill="#84BE84" rx="3" ry="3" style="stroke:#038048;stroke-width:1.0;"/><text fill="#000000" font-family="sans-serif" font-size="14" lengthAdjust="spacing" textLength="227" x="1149" y="404.6445">addUserStory(userStory: UserStory)</text><ellipse cx="1140" cy="418.7808" fill="#84BE84" rx="3" ry="3" style="stroke:#038048;stroke-width:1.0;"/><text fill="#000000" font-family="sans-serif" font-size="14" lengthAdjust="spacing" textLength="250" x="1149" y="423.7646">removeUserStory(userStory: UserStory)</text><ellipse cx="1140" cy="437.9009" fill="#84BE84" rx="3" ry="3" style="stroke:#038048;stroke-width:1.0;"/><text fill="#000000" font-family="sans-serif" font-size="14" lengthAdjust="spacing" textLength="193" x="1149" y="442.8848">calculateTotalStoryPoints(): int</text></g><!--class Status--><g id="elem_Status"><rect codeLine="35" fill="#F1F1F1" height="105.3604" id="Status" rx="2.5" ry="2.5" style="stroke:#181818;stroke-width:0.5;" width="72" x="1022" y="306.6201"/><ellipse cx="1037" cy="322.6201" fill="#EB937F" rx="11" ry="11" style="stroke:#181818;stroke-width:1.0;"/><path d="M1033.5313,316.9014 L1033.5313,316.4951 L1041.0469,316.4951 L1041.7656,318.7607 L1040.5938,319.2139 Q1039.9063,317.8857 1039.3125,317.3936 Q1038.7188,316.9014 1037.9844,316.9014 L1036.125,316.9014 Q1036.125,316.9014 1036.2578,317.0342 Q1036.3906,317.167 1036.3906,317.4326 L1036.3906,321.542 L1037.4531,321.542 Q1038.1094,321.542 1038.4141,321.2139 Q1038.7188,320.8857 1038.7188,320.2139 L1038.7188,319.8232 L1040.1094,319.8232 L1040.1094,323.7295 L1038.7188,323.7295 L1038.7188,323.4639 Q1038.7188,322.7451 1038.4141,322.3467 Q1038.1094,321.9482 1037.4531,321.9482 L1036.5313,321.9482 L1036.5313,326.917 Q1036.5313,327.1826 1036.6953,327.3154 Q1036.8594,327.4482 1036.8594,327.4482 L1037.8438,327.4482 Q1038.8438,327.4482 1039.5391,326.8857 Q1040.2344,326.3232 1040.75,324.8076 L1041.9688,325.2607 L1041.2344,327.8545 L1033.4688,327.8545 L1033.4688,327.4482 L1033.8594,327.4482 Q1034.2031,327.4482 1034.3359,327.3154 Q1034.4688,327.1826 1034.4688,326.917 L1034.4688,317.4326 Q1034.4688,317.167 1034.3359,317.0342 Q1034.2031,316.9014 1033.8594,316.9014 L1033.5313,316.9014 Z " fill="#000000"/><text fill="#000000" font-family="sans-serif" font-size="14" lengthAdjust="spacing" textLength="40" x="1051" y="329.104">Status</text><line style="stroke:#181818;stroke-width:0.5;" x1="1023" x2="1093" y1="338.6201" y2="338.6201"/><text fill="#000000" font-family="sans-serif" font-size="14" lengthAdjust="spacing" textLength="41" x="1028" y="358.6641">TODO</text><text fill="#000000" font-family="sans-serif" font-size="14" lengthAdjust="spacing" textLength="44" x="1028" y="377.7842">DOING</text><text fill="#000000" font-family="sans-serif" font-size="14" lengthAdjust="spacing" textLength="39" x="1028" y="396.9043">DONE</text><line style="stroke:#181818;stroke-width:0.5;" x1="1023" x2="1093" y1="403.9805" y2="403.9805"/></g><!--class ProductManager--><g id="elem_ProductManager"><rect codeLine="43" fill="#F1F1F1" height="86.2402" id="ProductManager" rx="2.5" ry="2.5" style="stroke:#181818;stroke-width:0.5;" width="137" x="327.5" y="103.1201"/><ellipse cx="342.5" cy="119.1201" fill="#ADD1B2" rx="11" ry="11" style="stroke:#181818;stroke-width:1.0;"/><path d="M341.0781,124.4795 Q339.2188,124.4795 338.125,123.0889 Q337.0313,121.6982 337.0313,118.7139 Q337.0313,116.1826 338.1953,114.5264 Q339.3594,112.8701 341.3438,112.8701 Q342.8125,112.8701 343.2813,112.9951 Q343.75,113.1982 343.75,113.1982 Q343.75,113.1982 343.75,113.1279 Q343.75,113.0576 344.3594,112.1357 L345.4063,115.792 L344.0781,116.1982 Q343.6094,114.6514 342.9453,113.9873 Q342.2813,113.3232 341.2188,113.3232 Q340.8281,113.3232 340.0625,114.8545 Q339.2969,116.3857 339.2969,118.6357 Q339.2969,121.1045 339.9609,122.4951 Q340.625,123.8857 341.1563,123.8857 Q342.2188,123.8857 342.9766,123.1201 Q343.7344,122.3545 344.0781,120.6982 L345.4063,121.292 Q345.0781,122.6982 344.1797,123.5889 Q343.2813,124.4795 341.0781,124.4795 Z " fill="#000000"/><text fill="#000000" font-family="sans-serif" font-size="14" lengthAdjust="spacing" textLength="105" x="356.5" y="125.604">ProductManager</text><line style="stroke:#181818;stroke-width:0.5;" x1="328.5" x2="463.5" y1="135.1201" y2="135.1201"/><rect fill="none" height="6" style="stroke:#C82930;stroke-width:1.0;" width="6" x="335.5" y="147.1802"/><text fill="#000000" font-family="sans-serif" font-size="14" lengthAdjust="spacing" textLength="80" x="347.5" y="155.1641">name: String</text><rect fill="none" height="6" style="stroke:#C82930;stroke-width:1.0;" width="6" x="335.5" y="166.3003"/><text fill="#000000" font-family="sans-serif" font-size="14" lengthAdjust="spacing" textLength="78" x="347.5" y="174.2842">email: String</text><line style="stroke:#181818;stroke-width:0.5;" x1="328.5" x2="463.5" y1="181.3604" y2="181.3604"/></g><!--class ProjectManager--><g id="elem_ProjectManager"><rect codeLine="48" fill="#F1F1F1" height="86.2402" id="ProjectManager" rx="2.5" ry="2.5" style="stroke:#181818;stroke-width:0.5;" width="132" x="500" y="103.1201"/><ellipse cx="515" cy="119.1201" fill="#ADD1B2" rx="11" ry="11" style="stroke:#181818;stroke-width:1.0;"/><path d="M513.5781,124.4795 Q511.7188,124.4795 510.625,123.0889 Q509.5313,121.6982 509.5313,118.7139 Q509.5313,116.1826 510.6953,114.5264 Q511.8594,112.8701 513.8438,112.8701 Q515.3125,112.8701 515.7813,112.9951 Q516.25,113.1982 516.25,113.1982 Q516.25,113.1982 516.25,113.1279 Q516.25,113.0576 516.8594,112.1357 L517.9063,115.792 L516.5781,116.1982 Q516.1094,114.6514 515.4453,113.9873 Q514.7813,113.3232 513.7188,113.3232 Q513.3281,113.3232 512.5625,114.8545 Q511.7969,116.3857 511.7969,118.6357 Q511.7969,121.1045 512.4609,122.4951 Q513.125,123.8857 513.6563,123.8857 Q514.7188,123.8857 515.4766,123.1201 Q516.2344,122.3545 516.5781,120.6982 L517.9063,121.292 Q517.5781,122.6982 516.6797,123.5889 Q515.7813,124.4795 513.5781,124.4795 Z " fill="#000000"/><text fill="#000000" font-family="sans-serif" font-size="14" lengthAdjust="spacing" textLength="100" x="529" y="125.604">ProjectManager</text><line style="stroke:#181818;stroke-width:0.5;" x1="501" x2="631" y1="135.1201" y2="135.1201"/><rect fill="none" height="6" style="stroke:#C82930;stroke-width:1.0;" width="6" x="508" y="147.1802"/><text fill="#000000" font-family="sans-serif" font-size="14" lengthAdjust="spacing" textLength="80" x="520" y="155.1641">name: String</text><rect fill="none" height="6" style="stroke:#C82930;stroke-width:1.0;" width="6" x="508" y="166.3003"/><text fill="#000000" font-family="sans-serif" font-size="14" lengthAdjust="spacing" textLength="78" x="520" y="174.2842">email: String</text><line style="stroke:#181818;stroke-width:0.5;" x1="501" x2="631" y1="181.3604" y2="181.3604"/></g><!--class User--><g id="elem_User"><rect codeLine="53" fill="#F1F1F1" height="124.4805" id="User" rx="2.5" ry="2.5" style="stroke:#181818;stroke-width:0.5;" width="134" x="413" y="548.6201"/><ellipse cx="460.75" cy="564.6201" fill="#A9DCDF" rx="11" ry="11" style="stroke:#181818;stroke-width:1.0;"/><path d="M461.125,564.6045 L459.1406,564.6045 L458.5469,567.1201 Q458.4844,567.4639 458.4844,567.6514 Q458.4844,567.917 458.5781,568.1826 Q458.6719,568.4482 458.6719,568.4482 L459.3438,568.4482 L459.3438,568.8545 L455.8906,568.8545 L455.8906,568.4482 L456.0781,568.4482 Q456.3438,568.4482 456.5469,568.2842 Q456.75,568.1201 456.8125,567.7295 L459.4063,557.5576 L461.2813,556.9482 L463.9219,567.7295 Q464.0625,568.1201 464.2578,568.2842 Q464.4531,568.4482 464.4531,568.4482 L464.9219,568.4482 L464.9219,568.8545 L461.0625,568.8545 L461.0625,568.4482 L461.3281,568.4482 Q461.7344,568.4482 461.7969,568.2842 Q461.8594,568.1201 461.8594,567.9951 Q461.8594,567.7295 461.7969,567.5264 L461.125,564.6045 Z M459.7344,558.6982 L459.7344,558.6982 L459.2813,564.1982 L461.0625,564.1982 L459.7344,558.6982 Z " fill="#000000"/><text fill="#000000" font-family="sans-serif" font-size="14" font-style="italic" lengthAdjust="spacing" textLength="30" x="481.25" y="571.104">User</text><line style="stroke:#181818;stroke-width:0.5;" x1="414" x2="546" y1="580.6201" y2="580.6201"/><rect fill="none" height="6" style="stroke:#C82930;stroke-width:1.0;" width="6" x="421" y="592.6802"/><text fill="#000000" font-family="sans-serif" font-size="14" lengthAdjust="spacing" textLength="108" x="433" y="600.6641">username: String</text><rect fill="none" height="6" style="stroke:#C82930;stroke-width:1.0;" width="6" x="421" y="611.8003"/><text fill="#000000" font-family="sans-serif" font-size="14" lengthAdjust="spacing" textLength="105" x="433" y="619.7842">password: String</text><line style="stroke:#181818;stroke-width:0.5;" x1="414" x2="546" y1="626.8604" y2="626.8604"/><ellipse cx="424" cy="641.9204" fill="#84BE84" rx="3" ry="3" style="stroke:#038048;stroke-width:1.0;"/><text fill="#000000" font-family="sans-serif" font-size="14" lengthAdjust="spacing" textLength="40" x="433" y="646.9043">login()</text><ellipse cx="424" cy="661.0405" fill="#84BE84" rx="3" ry="3" style="stroke:#038048;stroke-width:1.0;"/><text fill="#000000" font-family="sans-serif" font-size="14" lengthAdjust="spacing" textLength="49" x="433" y="666.0244">logout()</text></g><!--class Team--><g id="elem_Team"><rect codeLine="60" fill="#F1F1F1" height="124.4805" id="Team" rx="2.5" ry="2.5" style="stroke:#181818;stroke-width:0.5;" width="270" x="22" y="84.1201"/><ellipse cx="134.75" cy="100.1201" fill="#ADD1B2" rx="11" ry="11" style="stroke:#181818;stroke-width:1.0;"/><path d="M133.3281,105.4795 Q131.4688,105.4795 130.375,104.0889 Q129.2813,102.6982 129.2813,99.7139 Q129.2813,97.1826 130.4453,95.5264 Q131.6094,93.8701 133.5938,93.8701 Q135.0625,93.8701 135.5313,93.9951 Q136,94.1982 136,94.1982 Q136,94.1982 136,94.1279 Q136,94.0576 136.6094,93.1357 L137.6563,96.792 L136.3281,97.1982 Q135.8594,95.6514 135.1953,94.9873 Q134.5313,94.3232 133.4688,94.3232 Q133.0781,94.3232 132.3125,95.8545 Q131.5469,97.3857 131.5469,99.6357 Q131.5469,102.1045 132.2109,103.4951 Q132.875,104.8857 133.4063,104.8857 Q134.4688,104.8857 135.2266,104.1201 Q135.9844,103.3545 136.3281,101.6982 L137.6563,102.292 Q137.3281,103.6982 136.4297,104.5889 Q135.5313,105.4795 133.3281,105.4795 Z " fill="#000000"/><text fill="#000000" font-family="sans-serif" font-size="14" lengthAdjust="spacing" textLength="36" x="155.25" y="106.604">Team</text><line style="stroke:#181818;stroke-width:0.5;" x1="23" x2="291" y1="116.1201" y2="116.1201"/><rect fill="none" height="6" style="stroke:#C82930;stroke-width:1.0;" width="6" x="30" y="128.1802"/><text fill="#000000" font-family="sans-serif" font-size="14" lengthAdjust="spacing" textLength="80" x="42" y="136.1641">name: String</text><rect fill="none" height="6" style="stroke:#C82930;stroke-width:1.0;" width="6" x="30" y="147.3003"/><text fill="#000000" font-family="sans-serif" font-size="14" lengthAdjust="spacing" textLength="169" x="42" y="155.2842">members: List&lt;Developer&gt;</text><line style="stroke:#181818;stroke-width:0.5;" x1="23" x2="291" y1="162.3604" y2="162.3604"/><ellipse cx="33" cy="177.4204" fill="#84BE84" rx="3" ry="3" style="stroke:#038048;stroke-width:1.0;"/><text fill="#000000" font-family="sans-serif" font-size="14" lengthAdjust="spacing" textLength="221" x="42" y="182.4043">addMember(developer: Developer)</text><ellipse cx="33" cy="196.5405" fill="#84BE84" rx="3" ry="3" style="stroke:#038048;stroke-width:1.0;"/><text fill="#000000" font-family="sans-serif" font-size="14" lengthAdjust="spacing" textLength="244" x="42" y="201.5244">removeMember(developer: Developer)</text></g><!--class Developer--><g id="elem_Developer"><rect codeLine="67" fill="#F1F1F1" height="86.2402" id="Developer" rx="2.5" ry="2.5" style="stroke:#181818;stroke-width:0.5;" width="106" x="427" y="316.1201"/><ellipse cx="446.5" cy="332.1201" fill="#A9DCDF" rx="11" ry="11" style="stroke:#181818;stroke-width:1.0;"/><path d="M446.875,332.1045 L444.8906,332.1045 L444.2969,334.6201 Q444.2344,334.9639 444.2344,335.1514 Q444.2344,335.417 444.3281,335.6826 Q444.4219,335.9482 444.4219,335.9482 L445.0938,335.9482 L445.0938,336.3545 L441.6406,336.3545 L441.6406,335.9482 L441.8281,335.9482 Q442.0938,335.9482 442.2969,335.7842 Q442.5,335.6201 442.5625,335.2295 L445.1563,325.0576 L447.0313,324.4482 L449.6719,335.2295 Q449.8125,335.6201 450.0078,335.7842 Q450.2031,335.9482 450.2031,335.9482 L450.6719,335.9482 L450.6719,336.3545 L446.8125,336.3545 L446.8125,335.9482 L447.0781,335.9482 Q447.4844,335.9482 447.5469,335.7842 Q447.6094,335.6201 447.6094,335.4951 Q447.6094,335.2295 447.5469,335.0264 L446.875,332.1045 Z M445.4844,326.1982 L445.4844,326.1982 L445.0313,331.6982 L446.8125,331.6982 L445.4844,326.1982 Z " fill="#000000"/><text fill="#000000" font-family="sans-serif" font-size="14" font-style="italic" lengthAdjust="spacing" textLength="64" x="461.5" y="338.604">Developer</text><line style="stroke:#181818;stroke-width:0.5;" x1="428" x2="532" y1="348.1201" y2="348.1201"/><rect fill="none" height="6" style="stroke:#C82930;stroke-width:1.0;" width="6" x="435" y="360.1802"/><text fill="#000000" font-family="sans-serif" font-size="14" lengthAdjust="spacing" textLength="80" x="447" y="368.1641">name: String</text><rect fill="none" height="6" style="stroke:#C82930;stroke-width:1.0;" width="6" x="435" y="379.3003"/><text fill="#000000" font-family="sans-serif" font-size="14" lengthAdjust="spacing" textLength="78" x="447" y="387.2842">email: String</text><line style="stroke:#181818;stroke-width:0.5;" x1="428" x2="532" y1="394.3604" y2="394.3604"/></g><!--link ProductManager to Developer--><g id="link_ProductManager_Developer"><path codeLine="72" d="M412.8,189.3101 C425.1,220.2201 441.98,262.6301 455.75,297.2101 " fill="none" id="ProductManager-to-Developer" style="stroke:#181818;stroke-width:1.0;"/><polygon fill="none" points="462.34,294.8301,463.23,316.0001,449.33,300.0101,462.34,294.8301" style="stroke:#181818;stroke-width:1.0;"/></g><!--link ProjectManager to Developer--><g id="link_ProjectManager_Developer"><path codeLine="73" d="M548.8,189.3101 C536.21,220.2201 518.92,262.6301 504.83,297.2101 " fill="none" id="ProjectManager-to-Developer" style="stroke:#181818;stroke-width:1.0;"/><polygon fill="none" points="511.2,300.1201,497.17,316.0001,498.23,294.8401,511.2,300.1201" style="stroke:#181818;stroke-width:1.0;"/></g><!--link Developer to User--><g id="link_Developer_User"><path codeLine="74" d="M480,402.1601 C480,436.4601 480,485.9301 480,527.9601 " fill="none" id="Developer-to-User" style="stroke:#181818;stroke-width:1.0;"/><polygon fill="none" points="487,528.2101,480,548.2101,473,528.2101,487,528.2101" style="stroke:#181818;stroke-width:1.0;"/></g><!--link Team to Developer--><g id="link_Team_Developer"><path codeLine="75" d="M250.42,208.1501 C307.62,245.5201 378.77,291.9901 426.57,323.2201 " fill="none" id="Team-Developer" style="stroke:#181818;stroke-width:1.0;"/><text fill="#000000" font-family="sans-serif" font-size="13" lengthAdjust="spacing" textLength="7" x="254.379" y="231.6606">1</text><text fill="#000000" font-family="sans-serif" font-size="13" lengthAdjust="spacing" textLength="20" x="398.8395" y="315.7381">0..*</text></g><!--link UserStory to Developer--><g id="link_UserStory_Developer"><path codeLine="76" d="M688.5,510.0301 C633.9,470.7701 574.47,428.0401 533.08,398.2901 " fill="none" id="UserStory-Developer" style="stroke:#181818;stroke-width:1.0;"/><text fill="#000000" font-family="sans-serif" font-size="13" lengthAdjust="spacing" textLength="22" x="658.3242" y="501.9839">0..1</text><text fill="#000000" font-family="sans-serif" font-size="13" lengthAdjust="spacing" textLength="22" x="540.8898" y="399.9573">0..1</text></g><!--link Product to UserStory--><g id="link_Product_UserStory"><path codeLine="79" d="M826.29,431.2801 C826.38,455.7701 826.5,483.6501 826.6,509.9801 " fill="none" id="Product-UserStory" style="stroke:#181818;stroke-width:1.0;"/><text fill="#000000" font-family="sans-serif" font-size="13" lengthAdjust="spacing" textLength="7" x="818.9941" y="453.6671">1</text><text fill="#000000" font-family="sans-serif" font-size="13" lengthAdjust="spacing" textLength="20" x="805.7713" y="499.2126">0..*</text></g><!--link Sprint to UserStory--><g id="link_Sprint_UserStory"><path codeLine="80" d="M1149.25,450.2401 C1136.89,458.6401 1124.33,466.7501 1112,474.1201 C1065.8,501.7501 1013.09,528.1301 965.66,550.1501 " fill="none" id="Sprint-UserStory" style="stroke:#181818;stroke-width:1.0;"/><text fill="#000000" font-family="sans-serif" font-size="13" lengthAdjust="spacing" textLength="7" x="1132.9668" y="472.8002">1</text><text fill="#000000" font-family="sans-serif" font-size="13" lengthAdjust="spacing" textLength="20" x="973.3253" y="544.5123">0..*</text></g><!--link ProductManager to Product--><g id="link_ProductManager_Product"><path codeLine="81" d="M446.23,189.3401 C457.4,196.7901 469.62,203.5901 482,208.1201 C551.54,233.5501 578.92,195.4601 648,222.1201 C685.92,236.7501 722.54,262.1001 752.6,286.9801 " fill="none" id="ProductManager-Product" style="stroke:#181818;stroke-width:1.0;"/><text fill="#000000" font-family="sans-serif" font-size="13" lengthAdjust="spacing" textLength="20" x="432.3902" y="212.1971">0..*</text><text fill="#000000" font-family="sans-serif" font-size="13" lengthAdjust="spacing" textLength="7" x="737.1891" y="276.1212">1</text></g><!--link ProjectManager to Sprint--><g id="link_ProjectManager_Sprint"><path codeLine="82" d="M632.2,151.4401 C758.25,160.4401 1027.68,183.6201 1112,222.1201 C1136.91,233.5001 1160.78,250.2201 1182,268.0701 " fill="none" id="ProjectManager-Sprint" style="stroke:#181818;stroke-width:1.0;"/><text fill="#000000" font-family="sans-serif" font-size="13" lengthAdjust="spacing" textLength="20" x="640.0581" y="149.0366">0..*</text><text fill="#000000" font-family="sans-serif" font-size="13" lengthAdjust="spacing" textLength="7" x="1167.118" y="257.1426">1</text></g></g></svg>