<?xml version="1.0" encoding="UTF-8" standalone="no"?><svg xmlns="http://www.w3.org/2000/svg" xmlns:xlink="http://www.w3.org/1999/xlink" contentStyleType="text/css" height="278px" preserveAspectRatio="none" style="width:299px;height:278px;background:#FFFFFF;" version="1.1" viewBox="0 0 299 278" width="299px" zoomAndPan="magnify"><defs/><g><!--class 租户--><g id="elem_租户"><rect codeLine="1" fill="#F1F1F1" height="48" id="租户" rx="2.5" ry="2.5" style="stroke:#181818;stroke-width:0.5;" width="60" x="14" y="7"/><ellipse cx="29" cy="23" fill="#ADD1B2" rx="11" ry="11" style="stroke:#181818;stroke-width:1.0;"/><path d="M27.5781,28.3594 Q25.7188,28.3594 24.625,26.9688 Q23.5313,25.5781 23.5313,22.5938 Q23.5313,20.0625 24.6953,18.4063 Q25.8594,16.75 27.8438,16.75 Q29.3125,16.75 29.7813,16.875 Q30.25,17.0781 30.25,17.0781 Q30.25,17.0781 30.25,17.0078 Q30.25,16.9375 30.8594,16.0156 L31.9063,19.6719 L30.5781,20.0781 Q30.1094,18.5313 29.4453,17.8672 Q28.7813,17.2031 27.7188,17.2031 Q27.3281,17.2031 26.5625,18.7344 Q25.7969,20.2656 25.7969,22.5156 Q25.7969,24.9844 26.4609,26.375 Q27.125,27.7656 27.6563,27.7656 Q28.7188,27.7656 29.4766,27 Q30.2344,26.2344 30.5781,24.5781 L31.9063,25.1719 Q31.5781,26.5781 30.6797,27.4688 Q29.7813,28.3594 27.5781,28.3594 Z " fill="#000000"/><text fill="#000000" font-family="sans-serif" font-size="14" lengthAdjust="spacing" textLength="28" x="43" y="29.4839">租户</text><line style="stroke:#181818;stroke-width:0.5;" x1="15" x2="73" y1="39" y2="39"/><line style="stroke:#181818;stroke-width:0.5;" x1="15" x2="73" y1="47" y2="47"/></g><!--class 企业--><g id="elem_企业"><rect codeLine="2" fill="#F1F1F1" height="48" id="企业" rx="2.5" ry="2.5" style="stroke:#181818;stroke-width:0.5;" width="60" x="109" y="7"/><ellipse cx="124" cy="23" fill="#ADD1B2" rx="11" ry="11" style="stroke:#181818;stroke-width:1.0;"/><path d="M122.5781,28.3594 Q120.7188,28.3594 119.625,26.9688 Q118.5313,25.5781 118.5313,22.5938 Q118.5313,20.0625 119.6953,18.4063 Q120.8594,16.75 122.8438,16.75 Q124.3125,16.75 124.7813,16.875 Q125.25,17.0781 125.25,17.0781 Q125.25,17.0781 125.25,17.0078 Q125.25,16.9375 125.8594,16.0156 L126.9063,19.6719 L125.5781,20.0781 Q125.1094,18.5313 124.4453,17.8672 Q123.7813,17.2031 122.7188,17.2031 Q122.3281,17.2031 121.5625,18.7344 Q120.7969,20.2656 120.7969,22.5156 Q120.7969,24.9844 121.4609,26.375 Q122.125,27.7656 122.6563,27.7656 Q123.7188,27.7656 124.4766,27 Q125.2344,26.2344 125.5781,24.5781 L126.9063,25.1719 Q126.5781,26.5781 125.6797,27.4688 Q124.7813,28.3594 122.5781,28.3594 Z " fill="#000000"/><text fill="#000000" font-family="sans-serif" font-size="14" lengthAdjust="spacing" textLength="28" x="138" y="29.4839">企业</text><line style="stroke:#181818;stroke-width:0.5;" x1="110" x2="168" y1="39" y2="39"/><line style="stroke:#181818;stroke-width:0.5;" x1="110" x2="168" y1="47" y2="47"/></g><!--class 开发中心--><g id="elem_开发中心"><rect codeLine="3" fill="#F1F1F1" height="48" id="开发中心" rx="2.5" ry="2.5" style="stroke:#181818;stroke-width:0.5;" width="88" x="204" y="7"/><ellipse cx="219" cy="23" fill="#ADD1B2" rx="11" ry="11" style="stroke:#181818;stroke-width:1.0;"/><path d="M217.5781,28.3594 Q215.7188,28.3594 214.625,26.9688 Q213.5313,25.5781 213.5313,22.5938 Q213.5313,20.0625 214.6953,18.4063 Q215.8594,16.75 217.8438,16.75 Q219.3125,16.75 219.7813,16.875 Q220.25,17.0781 220.25,17.0781 Q220.25,17.0781 220.25,17.0078 Q220.25,16.9375 220.8594,16.0156 L221.9063,19.6719 L220.5781,20.0781 Q220.1094,18.5313 219.4453,17.8672 Q218.7813,17.2031 217.7188,17.2031 Q217.3281,17.2031 216.5625,18.7344 Q215.7969,20.2656 215.7969,22.5156 Q215.7969,24.9844 216.4609,26.375 Q217.125,27.7656 217.6563,27.7656 Q218.7188,27.7656 219.4766,27 Q220.2344,26.2344 220.5781,24.5781 L221.9063,25.1719 Q221.5781,26.5781 220.6797,27.4688 Q219.7813,28.3594 217.5781,28.3594 Z " fill="#000000"/><text fill="#000000" font-family="sans-serif" font-size="14" lengthAdjust="spacing" textLength="56" x="233" y="29.4839">开发中心</text><line style="stroke:#181818;stroke-width:0.5;" x1="205" x2="291" y1="39" y2="39"/><line style="stroke:#181818;stroke-width:0.5;" x1="205" x2="291" y1="47" y2="47"/></g><!--class 开发组--><g id="elem_开发组"><rect codeLine="4" fill="#F1F1F1" height="48" id="开发组" rx="2.5" ry="2.5" style="stroke:#181818;stroke-width:0.5;" width="74" x="7" y="115"/><ellipse cx="22" cy="131" fill="#ADD1B2" rx="11" ry="11" style="stroke:#181818;stroke-width:1.0;"/><path d="M20.5781,136.3594 Q18.7188,136.3594 17.625,134.9688 Q16.5313,133.5781 16.5313,130.5938 Q16.5313,128.0625 17.6953,126.4063 Q18.8594,124.75 20.8438,124.75 Q22.3125,124.75 22.7813,124.875 Q23.25,125.0781 23.25,125.0781 Q23.25,125.0781 23.25,125.0078 Q23.25,124.9375 23.8594,124.0156 L24.9063,127.6719 L23.5781,128.0781 Q23.1094,126.5313 22.4453,125.8672 Q21.7813,125.2031 20.7188,125.2031 Q20.3281,125.2031 19.5625,126.7344 Q18.7969,128.2656 18.7969,130.5156 Q18.7969,132.9844 19.4609,134.375 Q20.125,135.7656 20.6563,135.7656 Q21.7188,135.7656 22.4766,135 Q23.2344,134.2344 23.5781,132.5781 L24.9063,133.1719 Q24.5781,134.5781 23.6797,135.4688 Q22.7813,136.3594 20.5781,136.3594 Z " fill="#000000"/><text fill="#000000" font-family="sans-serif" font-size="14" lengthAdjust="spacing" textLength="42" x="36" y="137.4839">开发组</text><line style="stroke:#181818;stroke-width:0.5;" x1="8" x2="80" y1="147" y2="147"/><line style="stroke:#181818;stroke-width:0.5;" x1="8" x2="80" y1="155" y2="155"/></g><!--class 部门--><g id="elem_部门"><rect codeLine="5" fill="#F1F1F1" height="48" id="部门" rx="2.5" ry="2.5" style="stroke:#181818;stroke-width:0.5;" width="60" x="116" y="115"/><ellipse cx="131" cy="131" fill="#ADD1B2" rx="11" ry="11" style="stroke:#181818;stroke-width:1.0;"/><path d="M129.5781,136.3594 Q127.7188,136.3594 126.625,134.9688 Q125.5313,133.5781 125.5313,130.5938 Q125.5313,128.0625 126.6953,126.4063 Q127.8594,124.75 129.8438,124.75 Q131.3125,124.75 131.7813,124.875 Q132.25,125.0781 132.25,125.0781 Q132.25,125.0781 132.25,125.0078 Q132.25,124.9375 132.8594,124.0156 L133.9063,127.6719 L132.5781,128.0781 Q132.1094,126.5313 131.4453,125.8672 Q130.7813,125.2031 129.7188,125.2031 Q129.3281,125.2031 128.5625,126.7344 Q127.7969,128.2656 127.7969,130.5156 Q127.7969,132.9844 128.4609,134.375 Q129.125,135.7656 129.6563,135.7656 Q130.7188,135.7656 131.4766,135 Q132.2344,134.2344 132.5781,132.5781 L133.9063,133.1719 Q133.5781,134.5781 132.6797,135.4688 Q131.7813,136.3594 129.5781,136.3594 Z " fill="#000000"/><text fill="#000000" font-family="sans-serif" font-size="14" lengthAdjust="spacing" textLength="28" x="145" y="137.4839">部门</text><line style="stroke:#181818;stroke-width:0.5;" x1="117" x2="175" y1="147" y2="147"/><line style="stroke:#181818;stroke-width:0.5;" x1="117" x2="175" y1="155" y2="155"/></g><!--class 员工--><g id="elem_员工"><rect codeLine="6" fill="#F1F1F1" height="48" id="员工" rx="2.5" ry="2.5" style="stroke:#181818;stroke-width:0.5;" width="60" x="211" y="115"/><ellipse cx="226" cy="131" fill="#ADD1B2" rx="11" ry="11" style="stroke:#181818;stroke-width:1.0;"/><path d="M224.5781,136.3594 Q222.7188,136.3594 221.625,134.9688 Q220.5313,133.5781 220.5313,130.5938 Q220.5313,128.0625 221.6953,126.4063 Q222.8594,124.75 224.8438,124.75 Q226.3125,124.75 226.7813,124.875 Q227.25,125.0781 227.25,125.0781 Q227.25,125.0781 227.25,125.0078 Q227.25,124.9375 227.8594,124.0156 L228.9063,127.6719 L227.5781,128.0781 Q227.1094,126.5313 226.4453,125.8672 Q225.7813,125.2031 224.7188,125.2031 Q224.3281,125.2031 223.5625,126.7344 Q222.7969,128.2656 222.7969,130.5156 Q222.7969,132.9844 223.4609,134.375 Q224.125,135.7656 224.6563,135.7656 Q225.7188,135.7656 226.4766,135 Q227.2344,134.2344 227.5781,132.5781 L228.9063,133.1719 Q228.5781,134.5781 227.6797,135.4688 Q226.7813,136.3594 224.5781,136.3594 Z " fill="#000000"/><text fill="#000000" font-family="sans-serif" font-size="14" lengthAdjust="spacing" textLength="28" x="240" y="137.4839">员工</text><line style="stroke:#181818;stroke-width:0.5;" x1="212" x2="270" y1="147" y2="147"/><line style="stroke:#181818;stroke-width:0.5;" x1="212" x2="270" y1="155" y2="155"/></g><!--class 管理员--><g id="elem_管理员"><rect codeLine="7" fill="#F1F1F1" height="48" id="管理员" rx="2.5" ry="2.5" style="stroke:#181818;stroke-width:0.5;" width="74" x="7" y="223"/><ellipse cx="22" cy="239" fill="#ADD1B2" rx="11" ry="11" style="stroke:#181818;stroke-width:1.0;"/><path d="M20.5781,244.3594 Q18.7188,244.3594 17.625,242.9688 Q16.5313,241.5781 16.5313,238.5938 Q16.5313,236.0625 17.6953,234.4063 Q18.8594,232.75 20.8438,232.75 Q22.3125,232.75 22.7813,232.875 Q23.25,233.0781 23.25,233.0781 Q23.25,233.0781 23.25,233.0078 Q23.25,232.9375 23.8594,232.0156 L24.9063,235.6719 L23.5781,236.0781 Q23.1094,234.5313 22.4453,233.8672 Q21.7813,233.2031 20.7188,233.2031 Q20.3281,233.2031 19.5625,234.7344 Q18.7969,236.2656 18.7969,238.5156 Q18.7969,240.9844 19.4609,242.375 Q20.125,243.7656 20.6563,243.7656 Q21.7188,243.7656 22.4766,243 Q23.2344,242.2344 23.5781,240.5781 L24.9063,241.1719 Q24.5781,242.5781 23.6797,243.4688 Q22.7813,244.3594 20.5781,244.3594 Z " fill="#000000"/><text fill="#000000" font-family="sans-serif" font-size="14" lengthAdjust="spacing" textLength="42" x="36" y="245.4839">管理员</text><line style="stroke:#181818;stroke-width:0.5;" x1="8" x2="80" y1="255" y2="255"/><line style="stroke:#181818;stroke-width:0.5;" x1="8" x2="80" y1="263" y2="263"/></g><!--class 人事人员--><g id="elem_人事人员"><rect codeLine="8" fill="#F1F1F1" height="48" id="人事人员" rx="2.5" ry="2.5" style="stroke:#181818;stroke-width:0.5;" width="88" x="116" y="223"/><ellipse cx="131" cy="239" fill="#ADD1B2" rx="11" ry="11" style="stroke:#181818;stroke-width:1.0;"/><path d="M129.5781,244.3594 Q127.7188,244.3594 126.625,242.9688 Q125.5313,241.5781 125.5313,238.5938 Q125.5313,236.0625 126.6953,234.4063 Q127.8594,232.75 129.8438,232.75 Q131.3125,232.75 131.7813,232.875 Q132.25,233.0781 132.25,233.0781 Q132.25,233.0781 132.25,233.0078 Q132.25,232.9375 132.8594,232.0156 L133.9063,235.6719 L132.5781,236.0781 Q132.1094,234.5313 131.4453,233.8672 Q130.7813,233.2031 129.7188,233.2031 Q129.3281,233.2031 128.5625,234.7344 Q127.7969,236.2656 127.7969,238.5156 Q127.7969,240.9844 128.4609,242.375 Q129.125,243.7656 129.6563,243.7656 Q130.7188,243.7656 131.4766,243 Q132.2344,242.2344 132.5781,240.5781 L133.9063,241.1719 Q133.5781,242.5781 132.6797,243.4688 Q131.7813,244.3594 129.5781,244.3594 Z " fill="#000000"/><text fill="#000000" font-family="sans-serif" font-size="14" lengthAdjust="spacing" textLength="56" x="145" y="245.4839">人事人员</text><line style="stroke:#181818;stroke-width:0.5;" x1="117" x2="203" y1="255" y2="255"/><line style="stroke:#181818;stroke-width:0.5;" x1="117" x2="203" y1="263" y2="263"/></g></g></svg>