<?xml version="1.0" encoding="UTF-8" standalone="no"?><svg xmlns="http://www.w3.org/2000/svg" xmlns:xlink="http://www.w3.org/1999/xlink" contentStyleType="text/css" height="170px" preserveAspectRatio="none" style="width:309px;height:170px;background:#FFFFFF;" version="1.1" viewBox="0 0 309 170" width="309px" zoomAndPan="magnify"><defs/><g><!--class 人员已添加--><g id="elem_人员已添加"><rect codeLine="1" fill="#F1F1F1" height="48" id="人员已添加" rx="2.5" ry="2.5" style="stroke:#181818;stroke-width:0.5;" width="102" x="21" y="7"/><ellipse cx="36" cy="23" fill="#ADD1B2" rx="11" ry="11" style="stroke:#181818;stroke-width:1.0;"/><path d="M34.5781,28.3594 Q32.7188,28.3594 31.625,26.9688 Q30.5313,25.5781 30.5313,22.5938 Q30.5313,20.0625 31.6953,18.4063 Q32.8594,16.75 34.8438,16.75 Q36.3125,16.75 36.7813,16.875 Q37.25,17.0781 37.25,17.0781 Q37.25,17.0781 37.25,17.0078 Q37.25,16.9375 37.8594,16.0156 L38.9063,19.6719 L37.5781,20.0781 Q37.1094,18.5313 36.4453,17.8672 Q35.7813,17.2031 34.7188,17.2031 Q34.3281,17.2031 33.5625,18.7344 Q32.7969,20.2656 32.7969,22.5156 Q32.7969,24.9844 33.4609,26.375 Q34.125,27.7656 34.6563,27.7656 Q35.7188,27.7656 36.4766,27 Q37.2344,26.2344 37.5781,24.5781 L38.9063,25.1719 Q38.5781,26.5781 37.6797,27.4688 Q36.7813,28.3594 34.5781,28.3594 Z " fill="#000000"/><text fill="#000000" font-family="sans-serif" font-size="14" lengthAdjust="spacing" textLength="70" x="50" y="29.4839">人员已添加</text><line style="stroke:#181818;stroke-width:0.5;" x1="22" x2="122" y1="39" y2="39"/><line style="stroke:#181818;stroke-width:0.5;" x1="22" x2="122" y1="47" y2="47"/></g><!--class 敏捷团队已创建--><g id="elem_敏捷团队已创建"><rect codeLine="2" fill="#F1F1F1" height="48" id="敏捷团队已创建" rx="2.5" ry="2.5" style="stroke:#181818;stroke-width:0.5;" width="130" x="158" y="7"/><ellipse cx="173" cy="23" fill="#ADD1B2" rx="11" ry="11" style="stroke:#181818;stroke-width:1.0;"/><path d="M171.5781,28.3594 Q169.7188,28.3594 168.625,26.9688 Q167.5313,25.5781 167.5313,22.5938 Q167.5313,20.0625 168.6953,18.4063 Q169.8594,16.75 171.8438,16.75 Q173.3125,16.75 173.7813,16.875 Q174.25,17.0781 174.25,17.0781 Q174.25,17.0781 174.25,17.0078 Q174.25,16.9375 174.8594,16.0156 L175.9063,19.6719 L174.5781,20.0781 Q174.1094,18.5313 173.4453,17.8672 Q172.7813,17.2031 171.7188,17.2031 Q171.3281,17.2031 170.5625,18.7344 Q169.7969,20.2656 169.7969,22.5156 Q169.7969,24.9844 170.4609,26.375 Q171.125,27.7656 171.6563,27.7656 Q172.7188,27.7656 173.4766,27 Q174.2344,26.2344 174.5781,24.5781 L175.9063,25.1719 Q175.5781,26.5781 174.6797,27.4688 Q173.7813,28.3594 171.5781,28.3594 Z " fill="#000000"/><text fill="#000000" font-family="sans-serif" font-size="14" lengthAdjust="spacing" textLength="98" x="187" y="29.4839">敏捷团队已创建</text><line style="stroke:#181818;stroke-width:0.5;" x1="159" x2="287" y1="39" y2="39"/><line style="stroke:#181818;stroke-width:0.5;" x1="159" x2="287" y1="47" y2="47"/></g><!--class 产品经理已加入--><g id="elem_产品经理已加入"><rect codeLine="3" fill="#F1F1F1" height="48" id="产品经理已加入" rx="2.5" ry="2.5" style="stroke:#181818;stroke-width:0.5;" width="130" x="7" y="115"/><ellipse cx="22" cy="131" fill="#ADD1B2" rx="11" ry="11" style="stroke:#181818;stroke-width:1.0;"/><path d="M20.5781,136.3594 Q18.7188,136.3594 17.625,134.9688 Q16.5313,133.5781 16.5313,130.5938 Q16.5313,128.0625 17.6953,126.4063 Q18.8594,124.75 20.8438,124.75 Q22.3125,124.75 22.7813,124.875 Q23.25,125.0781 23.25,125.0781 Q23.25,125.0781 23.25,125.0078 Q23.25,124.9375 23.8594,124.0156 L24.9063,127.6719 L23.5781,128.0781 Q23.1094,126.5313 22.4453,125.8672 Q21.7813,125.2031 20.7188,125.2031 Q20.3281,125.2031 19.5625,126.7344 Q18.7969,128.2656 18.7969,130.5156 Q18.7969,132.9844 19.4609,134.375 Q20.125,135.7656 20.6563,135.7656 Q21.7188,135.7656 22.4766,135 Q23.2344,134.2344 23.5781,132.5781 L24.9063,133.1719 Q24.5781,134.5781 23.6797,135.4688 Q22.7813,136.3594 20.5781,136.3594 Z " fill="#000000"/><text fill="#000000" font-family="sans-serif" font-size="14" lengthAdjust="spacing" textLength="98" x="36" y="137.4839">产品经理已加入</text><line style="stroke:#181818;stroke-width:0.5;" x1="8" x2="136" y1="147" y2="147"/><line style="stroke:#181818;stroke-width:0.5;" x1="8" x2="136" y1="155" y2="155"/></g><!--class 开发同事已加入--><g id="elem_开发同事已加入"><rect codeLine="4" fill="#F1F1F1" height="48" id="开发同事已加入" rx="2.5" ry="2.5" style="stroke:#181818;stroke-width:0.5;" width="130" x="172" y="115"/><ellipse cx="187" cy="131" fill="#ADD1B2" rx="11" ry="11" style="stroke:#181818;stroke-width:1.0;"/><path d="M185.5781,136.3594 Q183.7188,136.3594 182.625,134.9688 Q181.5313,133.5781 181.5313,130.5938 Q181.5313,128.0625 182.6953,126.4063 Q183.8594,124.75 185.8438,124.75 Q187.3125,124.75 187.7813,124.875 Q188.25,125.0781 188.25,125.0781 Q188.25,125.0781 188.25,125.0078 Q188.25,124.9375 188.8594,124.0156 L189.9063,127.6719 L188.5781,128.0781 Q188.1094,126.5313 187.4453,125.8672 Q186.7813,125.2031 185.7188,125.2031 Q185.3281,125.2031 184.5625,126.7344 Q183.7969,128.2656 183.7969,130.5156 Q183.7969,132.9844 184.4609,134.375 Q185.125,135.7656 185.6563,135.7656 Q186.7188,135.7656 187.4766,135 Q188.2344,134.2344 188.5781,132.5781 L189.9063,133.1719 Q189.5781,134.5781 188.6797,135.4688 Q187.7813,136.3594 185.5781,136.3594 Z " fill="#000000"/><text fill="#000000" font-family="sans-serif" font-size="14" lengthAdjust="spacing" textLength="98" x="201" y="137.4839">开发同事已加入</text><line style="stroke:#181818;stroke-width:0.5;" x1="173" x2="301" y1="147" y2="147"/><line style="stroke:#181818;stroke-width:0.5;" x1="173" x2="301" y1="155" y2="155"/></g></g></svg>