<?xml version="1.0" encoding="UTF-8" standalone="no"?><svg xmlns="http://www.w3.org/2000/svg" xmlns:xlink="http://www.w3.org/1999/xlink" contentStyleType="text/css" height="256px" preserveAspectRatio="none" style="width:1399px;height:256px;background:#FFFFFF;" version="1.1" viewBox="0 0 1399 256" width="1399px" zoomAndPan="magnify"><defs/><g><!--cluster 产品管理--><g id="cluster_产品管理"><path d="M342.5,77.43 L403.5,77.43 A3.75,3.75 0 0 1 406,79.93 L413,102.5501 L1033.5,102.5501 A2.5,2.5 0 0 1 1036,105.0501 L1036,246.93 A2.5,2.5 0 0 1 1033.5,249.43 L342.5,249.43 A2.5,2.5 0 0 1 340,246.93 L340,79.93 A2.5,2.5 0 0 1 342.5,77.43 " fill="none" style="stroke:#000000;stroke-width:1.5;"/><line style="stroke:#000000;stroke-width:1.5;" x1="340" x2="413" y1="102.5501" y2="102.5501"/><text fill="#000000" font-family="sans-serif" font-size="14" font-weight="bold" lengthAdjust="spacing" textLength="60" x="344" y="95.4739">产品管理</text></g><!--cluster 用户故事--><g id="cluster_用户故事"><path d="M701.5,123.43 L762.5,123.43 A3.75,3.75 0 0 1 765,125.93 L772,148.5501 L1009.5,148.5501 A2.5,2.5 0 0 1 1012,151.0501 L1012,222.93 A2.5,2.5 0 0 1 1009.5,225.43 L701.5,225.43 A2.5,2.5 0 0 1 699,222.93 L699,125.93 A2.5,2.5 0 0 1 701.5,123.43 " fill="none" style="stroke:#000000;stroke-width:1.5;"/><line style="stroke:#000000;stroke-width:1.5;" x1="699" x2="772" y1="148.5501" y2="148.5501"/><text fill="#000000" font-family="sans-serif" font-size="14" font-weight="bold" lengthAdjust="spacing" textLength="60" x="703" y="141.4739">用户故事</text></g><!--cluster 迭代管理--><g id="cluster_迭代管理"><path d="M1062.5,123.43 L1123.5,123.43 A3.75,3.75 0 0 1 1126,125.93 L1133,148.5501 L1389.5,148.5501 A2.5,2.5 0 0 1 1392,151.0501 L1392,222.93 A2.5,2.5 0 0 1 1389.5,225.43 L1062.5,225.43 A2.5,2.5 0 0 1 1060,222.93 L1060,125.93 A2.5,2.5 0 0 1 1062.5,123.43 " fill="none" style="stroke:#000000;stroke-width:1.5;"/><line style="stroke:#000000;stroke-width:1.5;" x1="1060" x2="1133" y1="148.5501" y2="148.5501"/><text fill="#000000" font-family="sans-serif" font-size="14" font-weight="bold" lengthAdjust="spacing" textLength="60" x="1064" y="141.4739">迭代管理</text></g><!--cluster 团队管理--><g id="cluster_团队管理"><path d="M8.5,123.43 L69.5,123.43 A3.75,3.75 0 0 1 72,125.93 L79,148.5501 L313.5,148.5501 A2.5,2.5 0 0 1 316,151.0501 L316,222.93 A2.5,2.5 0 0 1 313.5,225.43 L8.5,225.43 A2.5,2.5 0 0 1 6,222.93 L6,125.93 A2.5,2.5 0 0 1 8.5,123.43 " fill="none" style="stroke:#000000;stroke-width:1.5;"/><line style="stroke:#000000;stroke-width:1.5;" x1="6" x2="79" y1="148.5501" y2="148.5501"/><text fill="#000000" font-family="sans-serif" font-size="14" font-weight="bold" lengthAdjust="spacing" textLength="60" x="10" y="141.4739">团队管理</text></g><!--class ProductBacklog--><g id="elem_ProductBacklog"><rect codeLine="3" fill="#F1F1F1" height="48" id="ProductBacklog" rx="2.5" ry="2.5" style="stroke:#181818;stroke-width:0.5;" width="131" x="356.5" y="161.43"/><ellipse cx="371.5" cy="177.43" fill="#ADD1B2" rx="11" ry="11" style="stroke:#181818;stroke-width:1.0;"/><path d="M370.0781,182.7894 Q368.2188,182.7894 367.125,181.3988 Q366.0313,180.0081 366.0313,177.0238 Q366.0313,174.4925 367.1953,172.8363 Q368.3594,171.18 370.3438,171.18 Q371.8125,171.18 372.2813,171.305 Q372.75,171.5081 372.75,171.5081 Q372.75,171.5081 372.75,171.4378 Q372.75,171.3675 373.3594,170.4456 L374.4063,174.1019 L373.0781,174.5081 Q372.6094,172.9613 371.9453,172.2972 Q371.2813,171.6331 370.2188,171.6331 Q369.8281,171.6331 369.0625,173.1644 Q368.2969,174.6956 368.2969,176.9456 Q368.2969,179.4144 368.9609,180.805 Q369.625,182.1956 370.1563,182.1956 Q371.2188,182.1956 371.9766,181.43 Q372.7344,180.6644 373.0781,179.0081 L374.4063,179.6019 Q374.0781,181.0081 373.1797,181.8988 Q372.2813,182.7894 370.0781,182.7894 Z " fill="#000000"/><text fill="#000000" font-family="sans-serif" font-size="14" lengthAdjust="spacing" textLength="99" x="385.5" y="183.9139">ProductBacklog</text><line style="stroke:#181818;stroke-width:0.5;" x1="357.5" x2="486.5" y1="193.43" y2="193.43"/><line style="stroke:#181818;stroke-width:0.5;" x1="357.5" x2="486.5" y1="201.43" y2="201.43"/></g><!--class ProductBacklogItem--><g id="elem_ProductBacklogItem"><rect codeLine="5" fill="#F1F1F1" height="48" id="ProductBacklogItem" rx="2.5" ry="2.5" style="stroke:#181818;stroke-width:0.5;" width="157" x="522.5" y="161.43"/><ellipse cx="537.5" cy="177.43" fill="#ADD1B2" rx="11" ry="11" style="stroke:#181818;stroke-width:1.0;"/><path d="M536.0781,182.7894 Q534.2188,182.7894 533.125,181.3988 Q532.0313,180.0081 532.0313,177.0238 Q532.0313,174.4925 533.1953,172.8363 Q534.3594,171.18 536.3438,171.18 Q537.8125,171.18 538.2813,171.305 Q538.75,171.5081 538.75,171.5081 Q538.75,171.5081 538.75,171.4378 Q538.75,171.3675 539.3594,170.4456 L540.4063,174.1019 L539.0781,174.5081 Q538.6094,172.9613 537.9453,172.2972 Q537.2813,171.6331 536.2188,171.6331 Q535.8281,171.6331 535.0625,173.1644 Q534.2969,174.6956 534.2969,176.9456 Q534.2969,179.4144 534.9609,180.805 Q535.625,182.1956 536.1563,182.1956 Q537.2188,182.1956 537.9766,181.43 Q538.7344,180.6644 539.0781,179.0081 L540.4063,179.6019 Q540.0781,181.0081 539.1797,181.8988 Q538.2813,182.7894 536.0781,182.7894 Z " fill="#000000"/><text fill="#000000" font-family="sans-serif" font-size="14" lengthAdjust="spacing" textLength="125" x="551.5" y="183.9139">ProductBacklogItem</text><line style="stroke:#181818;stroke-width:0.5;" x1="523.5" x2="678.5" y1="193.43" y2="193.43"/><line style="stroke:#181818;stroke-width:0.5;" x1="523.5" x2="678.5" y1="201.43" y2="201.43"/></g><!--class AcceptanceCriteria--><g id="elem_AcceptanceCriteria"><rect codeLine="9" fill="#F1F1F1" height="48" id="AcceptanceCriteria" rx="2.5" ry="2.5" style="stroke:#181818;stroke-width:0.5;" width="152" x="715" y="161.43"/><ellipse cx="730" cy="177.43" fill="#ADD1B2" rx="11" ry="11" style="stroke:#181818;stroke-width:1.0;"/><path d="M728.5781,182.7894 Q726.7188,182.7894 725.625,181.3988 Q724.5313,180.0081 724.5313,177.0238 Q724.5313,174.4925 725.6953,172.8363 Q726.8594,171.18 728.8438,171.18 Q730.3125,171.18 730.7813,171.305 Q731.25,171.5081 731.25,171.5081 Q731.25,171.5081 731.25,171.4378 Q731.25,171.3675 731.8594,170.4456 L732.9063,174.1019 L731.5781,174.5081 Q731.1094,172.9613 730.4453,172.2972 Q729.7813,171.6331 728.7188,171.6331 Q728.3281,171.6331 727.5625,173.1644 Q726.7969,174.6956 726.7969,176.9456 Q726.7969,179.4144 727.4609,180.805 Q728.125,182.1956 728.6563,182.1956 Q729.7188,182.1956 730.4766,181.43 Q731.2344,180.6644 731.5781,179.0081 L732.9063,179.6019 Q732.5781,181.0081 731.6797,181.8988 Q730.7813,182.7894 728.5781,182.7894 Z " fill="#000000"/><text fill="#000000" font-family="sans-serif" font-size="14" lengthAdjust="spacing" textLength="120" x="744" y="183.9139">AcceptanceCriteria</text><line style="stroke:#181818;stroke-width:0.5;" x1="716" x2="866" y1="193.43" y2="193.43"/><line style="stroke:#181818;stroke-width:0.5;" x1="716" x2="866" y1="201.43" y2="201.43"/></g><!--class UserStory--><g id="elem_UserStory"><rect codeLine="11" fill="#F1F1F1" height="48" id="UserStory" rx="2.5" ry="2.5" style="stroke:#181818;stroke-width:0.5;" width="94" x="902" y="161.43"/><ellipse cx="917" cy="177.43" fill="#ADD1B2" rx="11" ry="11" style="stroke:#181818;stroke-width:1.0;"/><path d="M915.5781,182.7894 Q913.7188,182.7894 912.625,181.3988 Q911.5313,180.0081 911.5313,177.0238 Q911.5313,174.4925 912.6953,172.8363 Q913.8594,171.18 915.8438,171.18 Q917.3125,171.18 917.7813,171.305 Q918.25,171.5081 918.25,171.5081 Q918.25,171.5081 918.25,171.4378 Q918.25,171.3675 918.8594,170.4456 L919.9063,174.1019 L918.5781,174.5081 Q918.1094,172.9613 917.4453,172.2972 Q916.7813,171.6331 915.7188,171.6331 Q915.3281,171.6331 914.5625,173.1644 Q913.7969,174.6956 913.7969,176.9456 Q913.7969,179.4144 914.4609,180.805 Q915.125,182.1956 915.6563,182.1956 Q916.7188,182.1956 917.4766,181.43 Q918.2344,180.6644 918.5781,179.0081 L919.9063,179.6019 Q919.5781,181.0081 918.6797,181.8988 Q917.7813,182.7894 915.5781,182.7894 Z " fill="#000000"/><text fill="#000000" font-family="sans-serif" font-size="14" lengthAdjust="spacing" textLength="62" x="931" y="183.9139">UserStory</text><line style="stroke:#181818;stroke-width:0.5;" x1="903" x2="995" y1="193.43" y2="193.43"/><line style="stroke:#181818;stroke-width:0.5;" x1="903" x2="995" y1="201.43" y2="201.43"/></g><!--class SprintBacklog--><g id="elem_SprintBacklog"><rect codeLine="18" fill="#F1F1F1" height="48" id="SprintBacklog" rx="2.5" ry="2.5" style="stroke:#181818;stroke-width:0.5;" width="119" x="1076.5" y="161.43"/><ellipse cx="1091.5" cy="177.43" fill="#ADD1B2" rx="11" ry="11" style="stroke:#181818;stroke-width:1.0;"/><path d="M1090.0781,182.7894 Q1088.2188,182.7894 1087.125,181.3988 Q1086.0313,180.0081 1086.0313,177.0238 Q1086.0313,174.4925 1087.1953,172.8363 Q1088.3594,171.18 1090.3438,171.18 Q1091.8125,171.18 1092.2813,171.305 Q1092.75,171.5081 1092.75,171.5081 Q1092.75,171.5081 1092.75,171.4378 Q1092.75,171.3675 1093.3594,170.4456 L1094.4063,174.1019 L1093.0781,174.5081 Q1092.6094,172.9613 1091.9453,172.2972 Q1091.2813,171.6331 1090.2188,171.6331 Q1089.8281,171.6331 1089.0625,173.1644 Q1088.2969,174.6956 1088.2969,176.9456 Q1088.2969,179.4144 1088.9609,180.805 Q1089.625,182.1956 1090.1563,182.1956 Q1091.2188,182.1956 1091.9766,181.43 Q1092.7344,180.6644 1093.0781,179.0081 L1094.4063,179.6019 Q1094.0781,181.0081 1093.1797,181.8988 Q1092.2813,182.7894 1090.0781,182.7894 Z " fill="#000000"/><text fill="#000000" font-family="sans-serif" font-size="14" lengthAdjust="spacing" textLength="87" x="1105.5" y="183.9139">SprintBacklog</text><line style="stroke:#181818;stroke-width:0.5;" x1="1077.5" x2="1194.5" y1="193.43" y2="193.43"/><line style="stroke:#181818;stroke-width:0.5;" x1="1077.5" x2="1194.5" y1="201.43" y2="201.43"/></g><!--class SprintBacklogItem--><g id="elem_SprintBacklogItem"><rect codeLine="20" fill="#F1F1F1" height="48" id="SprintBacklogItem" rx="2.5" ry="2.5" style="stroke:#181818;stroke-width:0.5;" width="145" x="1230.5" y="161.43"/><ellipse cx="1245.5" cy="177.43" fill="#ADD1B2" rx="11" ry="11" style="stroke:#181818;stroke-width:1.0;"/><path d="M1244.0781,182.7894 Q1242.2188,182.7894 1241.125,181.3988 Q1240.0313,180.0081 1240.0313,177.0238 Q1240.0313,174.4925 1241.1953,172.8363 Q1242.3594,171.18 1244.3438,171.18 Q1245.8125,171.18 1246.2813,171.305 Q1246.75,171.5081 1246.75,171.5081 Q1246.75,171.5081 1246.75,171.4378 Q1246.75,171.3675 1247.3594,170.4456 L1248.4063,174.1019 L1247.0781,174.5081 Q1246.6094,172.9613 1245.9453,172.2972 Q1245.2813,171.6331 1244.2188,171.6331 Q1243.8281,171.6331 1243.0625,173.1644 Q1242.2969,174.6956 1242.2969,176.9456 Q1242.2969,179.4144 1242.9609,180.805 Q1243.625,182.1956 1244.1563,182.1956 Q1245.2188,182.1956 1245.9766,181.43 Q1246.7344,180.6644 1247.0781,179.0081 L1248.4063,179.6019 Q1248.0781,181.0081 1247.1797,181.8988 Q1246.2813,182.7894 1244.0781,182.7894 Z " fill="#000000"/><text fill="#000000" font-family="sans-serif" font-size="14" lengthAdjust="spacing" textLength="113" x="1259.5" y="183.9139">SprintBacklogItem</text><line style="stroke:#181818;stroke-width:0.5;" x1="1231.5" x2="1374.5" y1="193.43" y2="193.43"/><line style="stroke:#181818;stroke-width:0.5;" x1="1231.5" x2="1374.5" y1="201.43" y2="201.43"/></g><!--class Org--><g id="elem_Org"><rect codeLine="26" fill="#F1F1F1" height="48" id="Org" rx="2.5" ry="2.5" style="stroke:#181818;stroke-width:0.5;" width="56" x="22" y="161.43"/><ellipse cx="37" cy="177.43" fill="#ADD1B2" rx="11" ry="11" style="stroke:#181818;stroke-width:1.0;"/><path d="M35.5781,182.7894 Q33.7188,182.7894 32.625,181.3988 Q31.5313,180.0081 31.5313,177.0238 Q31.5313,174.4925 32.6953,172.8363 Q33.8594,171.18 35.8438,171.18 Q37.3125,171.18 37.7813,171.305 Q38.25,171.5081 38.25,171.5081 Q38.25,171.5081 38.25,171.4378 Q38.25,171.3675 38.8594,170.4456 L39.9063,174.1019 L38.5781,174.5081 Q38.1094,172.9613 37.4453,172.2972 Q36.7813,171.6331 35.7188,171.6331 Q35.3281,171.6331 34.5625,173.1644 Q33.7969,174.6956 33.7969,176.9456 Q33.7969,179.4144 34.4609,180.805 Q35.125,182.1956 35.6563,182.1956 Q36.7188,182.1956 37.4766,181.43 Q38.2344,180.6644 38.5781,179.0081 L39.9063,179.6019 Q39.5781,181.0081 38.6797,181.8988 Q37.7813,182.7894 35.5781,182.7894 Z " fill="#000000"/><text fill="#000000" font-family="sans-serif" font-size="14" lengthAdjust="spacing" textLength="24" x="51" y="183.9139">Org</text><line style="stroke:#181818;stroke-width:0.5;" x1="23" x2="77" y1="193.43" y2="193.43"/><line style="stroke:#181818;stroke-width:0.5;" x1="23" x2="77" y1="201.43" y2="201.43"/></g><!--class Emp--><g id="elem_Emp"><rect codeLine="27" fill="#F1F1F1" height="48" id="Emp" rx="2.5" ry="2.5" style="stroke:#181818;stroke-width:0.5;" width="60" x="113" y="161.43"/><ellipse cx="128" cy="177.43" fill="#ADD1B2" rx="11" ry="11" style="stroke:#181818;stroke-width:1.0;"/><path d="M126.5781,182.7894 Q124.7188,182.7894 123.625,181.3988 Q122.5313,180.0081 122.5313,177.0238 Q122.5313,174.4925 123.6953,172.8363 Q124.8594,171.18 126.8438,171.18 Q128.3125,171.18 128.7813,171.305 Q129.25,171.5081 129.25,171.5081 Q129.25,171.5081 129.25,171.4378 Q129.25,171.3675 129.8594,170.4456 L130.9063,174.1019 L129.5781,174.5081 Q129.1094,172.9613 128.4453,172.2972 Q127.7813,171.6331 126.7188,171.6331 Q126.3281,171.6331 125.5625,173.1644 Q124.7969,174.6956 124.7969,176.9456 Q124.7969,179.4144 125.4609,180.805 Q126.125,182.1956 126.6563,182.1956 Q127.7188,182.1956 128.4766,181.43 Q129.2344,180.6644 129.5781,179.0081 L130.9063,179.6019 Q130.5781,181.0081 129.6797,181.8988 Q128.7813,182.7894 126.5781,182.7894 Z " fill="#000000"/><text fill="#000000" font-family="sans-serif" font-size="14" lengthAdjust="spacing" textLength="28" x="142" y="183.9139">Emp</text><line style="stroke:#181818;stroke-width:0.5;" x1="114" x2="172" y1="193.43" y2="193.43"/><line style="stroke:#181818;stroke-width:0.5;" x1="114" x2="172" y1="201.43" y2="201.43"/></g><!--class EmpType--><g id="elem_EmpType"><rect codeLine="28" fill="#F1F1F1" height="48" id="EmpType" rx="2.5" ry="2.5" style="stroke:#181818;stroke-width:0.5;" width="92" x="208" y="161.43"/><ellipse cx="223" cy="177.43" fill="#ADD1B2" rx="11" ry="11" style="stroke:#181818;stroke-width:1.0;"/><path d="M221.5781,182.7894 Q219.7188,182.7894 218.625,181.3988 Q217.5313,180.0081 217.5313,177.0238 Q217.5313,174.4925 218.6953,172.8363 Q219.8594,171.18 221.8438,171.18 Q223.3125,171.18 223.7813,171.305 Q224.25,171.5081 224.25,171.5081 Q224.25,171.5081 224.25,171.4378 Q224.25,171.3675 224.8594,170.4456 L225.9063,174.1019 L224.5781,174.5081 Q224.1094,172.9613 223.4453,172.2972 Q222.7813,171.6331 221.7188,171.6331 Q221.3281,171.6331 220.5625,173.1644 Q219.7969,174.6956 219.7969,176.9456 Q219.7969,179.4144 220.4609,180.805 Q221.125,182.1956 221.6563,182.1956 Q222.7188,182.1956 223.4766,181.43 Q224.2344,180.6644 224.5781,179.0081 L225.9063,179.6019 Q225.5781,181.0081 224.6797,181.8988 Q223.7813,182.7894 221.5781,182.7894 Z " fill="#000000"/><text fill="#000000" font-family="sans-serif" font-size="14" lengthAdjust="spacing" textLength="60" x="237" y="183.9139">EmpType</text><line style="stroke:#181818;stroke-width:0.5;" x1="209" x2="299" y1="193.43" y2="193.43"/><line style="stroke:#181818;stroke-width:0.5;" x1="209" x2="299" y1="201.43" y2="201.43"/></g><!--link Emp to EmpType--><g id="link_Emp_EmpType"><path codeLine="32" d="M173.35,185.43 C184.8,185.43 196.24,185.43 207.69,185.43 " fill="none" id="Emp-EmpType" style="stroke:#181818;stroke-width:1.0;"/><text fill="#000000" font-family="sans-serif" font-size="13" lengthAdjust="spacing" textLength="22" x="177.9695" y="181.3643">1..1</text><text fill="#000000" font-family="sans-serif" font-size="13" lengthAdjust="spacing" textLength="20" x="180.1233" y="201.5208">1..*</text></g><!--link Org to Emp--><g id="link_Org_Emp"><path codeLine="33" d="M78.34,185.43 C89.87,185.43 101.41,185.43 112.94,185.43 " fill="none" id="Org-Emp" style="stroke:#181818;stroke-width:1.0;"/><text fill="#000000" font-family="sans-serif" font-size="13" lengthAdjust="spacing" textLength="22" x="83.0002" y="181.0756">1..1</text><text fill="#000000" font-family="sans-serif" font-size="13" lengthAdjust="spacing" textLength="20" x="85.0532" y="202.0756">0..*</text></g><!--link ProductBacklog to Org--><g id="link_ProductBacklog_Org"><path codeLine="34" d="M410.66,161.29 C391.99,124.76 350.93,56.81 292.67,29.43 C257.81,13.05 152.73,10.25 119.33,29.43 C72.3,56.44 57.08,124.55 52.23,161.2 " fill="none" id="ProductBacklog-Org" style="stroke:#181818;stroke-width:1.0;"/><text fill="#000000" font-family="sans-serif" font-size="13" lengthAdjust="spacing" textLength="20" x="384.9249" y="150.5173">0..*</text><text fill="#000000" font-family="sans-serif" font-size="13" lengthAdjust="spacing" textLength="22" x="27.3402" y="150.53">1..1</text></g><!--link ProductBacklog to ProductBacklogItem--><g id="link_ProductBacklog_ProductBacklogItem"><path codeLine="35" d="M487.73,185.43 C499.23,185.43 510.74,185.43 522.24,185.43 " fill="none" id="ProductBacklog-ProductBacklogItem" style="stroke:#181818;stroke-width:1.0;"/><text fill="#000000" font-family="sans-serif" font-size="13" lengthAdjust="spacing" textLength="22" x="492.5467" y="182.1963">1..1</text><text fill="#000000" font-family="sans-serif" font-size="13" lengthAdjust="spacing" textLength="20" x="494.6122" y="201.0908">0..*</text></g><!--link ProductBacklogItem to UserStory--><g id="link_ProductBacklogItem_UserStory"><path codeLine="36" d="M611.65,161.17 C628.31,126.66 664.14,64.77 716.5,39.43 C776.91,10.19 809.31,6 867.5,39.43 C912.81,65.45 934.7,127.06 943.7,161.35 " fill="none" id="ProductBacklogItem-UserStory" style="stroke:#181818;stroke-width:1.0;"/><text fill="#000000" font-family="sans-serif" font-size="13" lengthAdjust="spacing" textLength="22" x="589.5603" y="150.7699">1..1</text><text fill="#000000" font-family="sans-serif" font-size="13" lengthAdjust="spacing" textLength="22" x="917.3194" y="150.5934">1..1</text></g><!--link AcceptanceCriteria to UserStory--><g id="link_AcceptanceCriteria_UserStory"><path codeLine="37" d="M867.22,185.43 C878.72,185.43 890.22,185.43 901.72,185.43 " fill="none" id="AcceptanceCriteria-UserStory" style="stroke:#181818;stroke-width:1.0;"/><text fill="#000000" font-family="sans-serif" font-size="13" lengthAdjust="spacing" textLength="20" x="873.9975" y="182.4801">1..*</text><text fill="#000000" font-family="sans-serif" font-size="13" lengthAdjust="spacing" textLength="22" x="871.8886" y="201.5208">1..1</text></g><!--link SprintBacklog to SprintBacklogItem--><g id="link_SprintBacklog_SprintBacklogItem"><path codeLine="38" d="M1195.69,185.43 C1207.29,185.43 1218.88,185.43 1230.48,185.43 " fill="none" id="SprintBacklog-SprintBacklogItem" style="stroke:#181818;stroke-width:1.0;"/><text fill="#000000" font-family="sans-serif" font-size="13" lengthAdjust="spacing" textLength="20" x="1202.6117" y="182.3691">0..*</text><text fill="#000000" font-family="sans-serif" font-size="13" lengthAdjust="spacing" textLength="22" x="1200.5195" y="201.1741">1..1</text></g><!--link SprintBacklogItem to UserStory--><g id="link_SprintBacklogItem_UserStory"><path codeLine="39" d="M1293.57,161.23 C1278.67,126.79 1246.06,64.99 1195.5,39.43 C1148.7,15.77 1125.29,17.83 1077.5,39.43 C1021.96,64.53 980.86,126.82 961.45,161.37 " fill="none" id="SprintBacklogItem-UserStory" style="stroke:#181818;stroke-width:1.0;"/><text fill="#000000" font-family="sans-serif" font-size="13" lengthAdjust="spacing" textLength="22" x="1266.0794" y="150.4412">1..1</text><text fill="#000000" font-family="sans-serif" font-size="13" lengthAdjust="spacing" textLength="22" x="967.7522" y="150.6188">1..1</text></g></g></svg>