<?xml version="1.0" encoding="UTF-8" standalone="no"?><svg xmlns="http://www.w3.org/2000/svg" xmlns:xlink="http://www.w3.org/1999/xlink" contentStyleType="text/css" height="643px" preserveAspectRatio="none" style="width:751px;height:643px;background:#FFFFFF;" version="1.1" viewBox="0 0 751 643" width="751px" zoomAndPan="magnify"><defs/><g><text fill="#000000" font-family="sans-serif" font-size="14" font-weight="bold" lengthAdjust="spacing" textLength="342" x="197.5" y="26.0439">Agile Project Management System Domain Model</text><!--class Product--><g id="elem_Product"><rect codeLine="3" fill="#F1F1F1" height="143.6006" id="Product" rx="2.5" ry="2.5" style="stroke:#181818;stroke-width:0.5;" width="276" x="7" y="66.1201"/><ellipse cx="116.25" cy="82.1201" fill="#ADD1B2" rx="11" ry="11" style="stroke:#181818;stroke-width:1.0;"/><path d="M114.8281,87.4795 Q112.9688,87.4795 111.875,86.0889 Q110.7813,84.6982 110.7813,81.7139 Q110.7813,79.1826 111.9453,77.5264 Q113.1094,75.8701 115.0938,75.8701 Q116.5625,75.8701 117.0313,75.9951 Q117.5,76.1982 117.5,76.1982 Q117.5,76.1982 117.5,76.1279 Q117.5,76.0576 118.1094,75.1357 L119.1563,78.792 L117.8281,79.1982 Q117.3594,77.6514 116.6953,76.9873 Q116.0313,76.3232 114.9688,76.3232 Q114.5781,76.3232 113.8125,77.8545 Q113.0469,79.3857 113.0469,81.6357 Q113.0469,84.1045 113.7109,85.4951 Q114.375,86.8857 114.9063,86.8857 Q115.9688,86.8857 116.7266,86.1201 Q117.4844,85.3545 117.8281,83.6982 L119.1563,84.292 Q118.8281,85.6982 117.9297,86.5889 Q117.0313,87.4795 114.8281,87.4795 Z " fill="#000000"/><text fill="#000000" font-family="sans-serif" font-size="14" lengthAdjust="spacing" textLength="49" x="136.75" y="88.604">Product</text><line style="stroke:#181818;stroke-width:0.5;" x1="8" x2="282" y1="98.1201" y2="98.1201"/><rect fill="none" height="6" style="stroke:#C82930;stroke-width:1.0;" width="6" x="15" y="110.1802"/><text fill="#000000" font-family="sans-serif" font-size="14" lengthAdjust="spacing" textLength="80" x="27" y="118.1641">name: String</text><rect fill="none" height="6" style="stroke:#C82930;stroke-width:1.0;" width="6" x="15" y="129.3003"/><text fill="#000000" font-family="sans-serif" font-size="14" lengthAdjust="spacing" textLength="157" x="27" y="137.2842">backlog: List&lt;UserStory&gt;</text><line style="stroke:#181818;stroke-width:0.5;" x1="8" x2="282" y1="144.3604" y2="144.3604"/><ellipse cx="18" cy="159.4204" fill="#84BE84" rx="3" ry="3" style="stroke:#038048;stroke-width:1.0;"/><text fill="#000000" font-family="sans-serif" font-size="14" lengthAdjust="spacing" textLength="227" x="27" y="164.4043">addUserStory(userStory: UserStory)</text><ellipse cx="18" cy="178.5405" fill="#84BE84" rx="3" ry="3" style="stroke:#038048;stroke-width:1.0;"/><text fill="#000000" font-family="sans-serif" font-size="14" lengthAdjust="spacing" textLength="250" x="27" y="183.5244">removeUserStory(userStory: UserStory)</text><ellipse cx="18" cy="197.6606" fill="#84BE84" rx="3" ry="3" style="stroke:#038048;stroke-width:1.0;"/><text fill="#000000" font-family="sans-serif" font-size="14" lengthAdjust="spacing" textLength="167" x="27" y="202.6445">sortUserStoriesByPriority()</text></g><!--class UserStory--><g id="elem_UserStory"><rect codeLine="11" fill="#F1F1F1" height="200.9609" id="UserStory" rx="2.5" ry="2.5" style="stroke:#181818;stroke-width:0.5;" width="277" x="161.5" y="289.1201"/><ellipse cx="264.75" cy="305.1201" fill="#ADD1B2" rx="11" ry="11" style="stroke:#181818;stroke-width:1.0;"/><path d="M263.3281,310.4795 Q261.4688,310.4795 260.375,309.0889 Q259.2813,307.6982 259.2813,304.7139 Q259.2813,302.1826 260.4453,300.5264 Q261.6094,298.8701 263.5938,298.8701 Q265.0625,298.8701 265.5313,298.9951 Q266,299.1982 266,299.1982 Q266,299.1982 266,299.1279 Q266,299.0576 266.6094,298.1357 L267.6563,301.792 L266.3281,302.1982 Q265.8594,300.6514 265.1953,299.9873 Q264.5313,299.3232 263.4688,299.3232 Q263.0781,299.3232 262.3125,300.8545 Q261.5469,302.3857 261.5469,304.6357 Q261.5469,307.1045 262.2109,308.4951 Q262.875,309.8857 263.4063,309.8857 Q264.4688,309.8857 265.2266,309.1201 Q265.9844,308.3545 266.3281,306.6982 L267.6563,307.292 Q267.3281,308.6982 266.4297,309.5889 Q265.5313,310.4795 263.3281,310.4795 Z " fill="#000000"/><text fill="#000000" font-family="sans-serif" font-size="14" lengthAdjust="spacing" textLength="62" x="285.25" y="311.604">UserStory</text><line style="stroke:#181818;stroke-width:0.5;" x1="162.5" x2="437.5" y1="321.1201" y2="321.1201"/><rect fill="none" height="6" style="stroke:#C82930;stroke-width:1.0;" width="6" x="169.5" y="333.1802"/><text fill="#000000" font-family="sans-serif" font-size="14" lengthAdjust="spacing" textLength="114" x="181.5" y="341.1641">description: String</text><rect fill="none" height="6" style="stroke:#C82930;stroke-width:1.0;" width="6" x="169.5" y="352.3003"/><text fill="#000000" font-family="sans-serif" font-size="14" lengthAdjust="spacing" textLength="202" x="181.5" y="360.2842">acceptanceCriteria: List&lt;String&gt;</text><rect fill="none" height="6" style="stroke:#C82930;stroke-width:1.0;" width="6" x="169.5" y="371.4204"/><text fill="#000000" font-family="sans-serif" font-size="14" lengthAdjust="spacing" textLength="93" x="181.5" y="379.4043">storyPoints: int</text><rect fill="none" height="6" style="stroke:#C82930;stroke-width:1.0;" width="6" x="169.5" y="390.5405"/><text fill="#000000" font-family="sans-serif" font-size="14" lengthAdjust="spacing" textLength="66" x="181.5" y="398.5244">priority: int</text><rect fill="none" height="6" style="stroke:#C82930;stroke-width:1.0;" width="6" x="169.5" y="409.6606"/><text fill="#000000" font-family="sans-serif" font-size="14" lengthAdjust="spacing" textLength="86" x="181.5" y="417.6445">status: Status</text><rect fill="none" height="6" style="stroke:#C82930;stroke-width:1.0;" width="6" x="169.5" y="428.7808"/><text fill="#000000" font-family="sans-serif" font-size="14" lengthAdjust="spacing" textLength="130" x="181.5" y="436.7646">assignee: Developer</text><line style="stroke:#181818;stroke-width:0.5;" x1="162.5" x2="437.5" y1="443.8408" y2="443.8408"/><ellipse cx="172.5" cy="458.9009" fill="#84BE84" rx="3" ry="3" style="stroke:#038048;stroke-width:1.0;"/><text fill="#000000" font-family="sans-serif" font-size="14" lengthAdjust="spacing" textLength="183" x="181.5" y="463.8848">changeStatus(status: Status)</text><ellipse cx="172.5" cy="478.021" fill="#84BE84" rx="3" ry="3" style="stroke:#038048;stroke-width:1.0;"/><text fill="#000000" font-family="sans-serif" font-size="14" lengthAdjust="spacing" textLength="251" x="181.5" y="483.0049">changeAssignee(developer: Developer)</text></g><!--class Status--><g id="elem_Status"><rect codeLine="22" fill="#F1F1F1" height="105.3604" id="Status" rx="2.5" ry="2.5" style="stroke:#181818;stroke-width:0.5;" width="72" x="629" y="85.6201"/><ellipse cx="644" cy="101.6201" fill="#EB937F" rx="11" ry="11" style="stroke:#181818;stroke-width:1.0;"/><path d="M640.5313,95.9014 L640.5313,95.4951 L648.0469,95.4951 L648.7656,97.7607 L647.5938,98.2139 Q646.9063,96.8857 646.3125,96.3936 Q645.7188,95.9014 644.9844,95.9014 L643.125,95.9014 Q643.125,95.9014 643.2578,96.0342 Q643.3906,96.167 643.3906,96.4326 L643.3906,100.542 L644.4531,100.542 Q645.1094,100.542 645.4141,100.2139 Q645.7188,99.8857 645.7188,99.2139 L645.7188,98.8232 L647.1094,98.8232 L647.1094,102.7295 L645.7188,102.7295 L645.7188,102.4639 Q645.7188,101.7451 645.4141,101.3467 Q645.1094,100.9482 644.4531,100.9482 L643.5313,100.9482 L643.5313,105.917 Q643.5313,106.1826 643.6953,106.3154 Q643.8594,106.4482 643.8594,106.4482 L644.8438,106.4482 Q645.8438,106.4482 646.5391,105.8857 Q647.2344,105.3232 647.75,103.8076 L648.9688,104.2607 L648.2344,106.8545 L640.4688,106.8545 L640.4688,106.4482 L640.8594,106.4482 Q641.2031,106.4482 641.3359,106.3154 Q641.4688,106.1826 641.4688,105.917 L641.4688,96.4326 Q641.4688,96.167 641.3359,96.0342 Q641.2031,95.9014 640.8594,95.9014 L640.5313,95.9014 Z " fill="#000000"/><text fill="#000000" font-family="sans-serif" font-size="14" lengthAdjust="spacing" textLength="40" x="658" y="108.104">Status</text><line style="stroke:#181818;stroke-width:0.5;" x1="630" x2="700" y1="117.6201" y2="117.6201"/><text fill="#000000" font-family="sans-serif" font-size="14" lengthAdjust="spacing" textLength="41" x="635" y="137.6641">TODO</text><text fill="#000000" font-family="sans-serif" font-size="14" lengthAdjust="spacing" textLength="44" x="635" y="156.7842">DOING</text><text fill="#000000" font-family="sans-serif" font-size="14" lengthAdjust="spacing" textLength="39" x="635" y="175.9043">DONE</text><line style="stroke:#181818;stroke-width:0.5;" x1="630" x2="700" y1="182.9805" y2="182.9805"/></g><!--class Sprint--><g id="elem_Sprint"><rect codeLine="28" fill="#F1F1F1" height="181.8408" id="Sprint" rx="2.5" ry="2.5" style="stroke:#181818;stroke-width:0.5;" width="276" x="318" y="47.1201"/><ellipse cx="433.25" cy="63.1201" fill="#ADD1B2" rx="11" ry="11" style="stroke:#181818;stroke-width:1.0;"/><path d="M431.8281,68.4795 Q429.9688,68.4795 428.875,67.0889 Q427.7813,65.6982 427.7813,62.7139 Q427.7813,60.1826 428.9453,58.5264 Q430.1094,56.8701 432.0938,56.8701 Q433.5625,56.8701 434.0313,56.9951 Q434.5,57.1982 434.5,57.1982 Q434.5,57.1982 434.5,57.1279 Q434.5,57.0576 435.1094,56.1357 L436.1563,59.792 L434.8281,60.1982 Q434.3594,58.6514 433.6953,57.9873 Q433.0313,57.3232 431.9688,57.3232 Q431.5781,57.3232 430.8125,58.8545 Q430.0469,60.3857 430.0469,62.6357 Q430.0469,65.1045 430.7109,66.4951 Q431.375,67.8857 431.9063,67.8857 Q432.9688,67.8857 433.7266,67.1201 Q434.4844,66.3545 434.8281,64.6982 L436.1563,65.292 Q435.8281,66.6982 434.9297,67.5889 Q434.0313,68.4795 431.8281,68.4795 Z " fill="#000000"/><text fill="#000000" font-family="sans-serif" font-size="14" lengthAdjust="spacing" textLength="37" x="453.75" y="69.604">Sprint</text><line style="stroke:#181818;stroke-width:0.5;" x1="319" x2="593" y1="79.1201" y2="79.1201"/><rect fill="none" height="6" style="stroke:#C82930;stroke-width:1.0;" width="6" x="326" y="91.1802"/><text fill="#000000" font-family="sans-serif" font-size="14" lengthAdjust="spacing" textLength="80" x="338" y="99.1641">name: String</text><rect fill="none" height="6" style="stroke:#C82930;stroke-width:1.0;" width="6" x="326" y="110.3003"/><text fill="#000000" font-family="sans-serif" font-size="14" lengthAdjust="spacing" textLength="75" x="338" y="118.2842">capacity: int</text><rect fill="none" height="6" style="stroke:#C82930;stroke-width:1.0;" width="6" x="326" y="129.4204"/><text fill="#000000" font-family="sans-serif" font-size="14" lengthAdjust="spacing" textLength="157" x="338" y="137.4043">backlog: List&lt;UserStory&gt;</text><rect fill="none" height="6" style="stroke:#C82930;stroke-width:1.0;" width="6" x="326" y="148.5405"/><text fill="#000000" font-family="sans-serif" font-size="14" lengthAdjust="spacing" textLength="75" x="338" y="156.5244">team: Team</text><line style="stroke:#181818;stroke-width:0.5;" x1="319" x2="593" y1="163.6006" y2="163.6006"/><ellipse cx="329" cy="178.6606" fill="#84BE84" rx="3" ry="3" style="stroke:#038048;stroke-width:1.0;"/><text fill="#000000" font-family="sans-serif" font-size="14" lengthAdjust="spacing" textLength="227" x="338" y="183.6445">addUserStory(userStory: UserStory)</text><ellipse cx="329" cy="197.7808" fill="#84BE84" rx="3" ry="3" style="stroke:#038048;stroke-width:1.0;"/><text fill="#000000" font-family="sans-serif" font-size="14" lengthAdjust="spacing" textLength="250" x="338" y="202.7646">removeUserStory(userStory: UserStory)</text><ellipse cx="329" cy="216.9009" fill="#84BE84" rx="3" ry="3" style="stroke:#038048;stroke-width:1.0;"/><text fill="#000000" font-family="sans-serif" font-size="14" lengthAdjust="spacing" textLength="193" x="338" y="221.8848">calculateTotalStoryPoints(): int</text></g><!--class Team--><g id="elem_Team"><rect codeLine="38" fill="#F1F1F1" height="124.4805" id="Team" rx="2.5" ry="2.5" style="stroke:#181818;stroke-width:0.5;" width="270" x="474" y="327.6201"/><ellipse cx="586.75" cy="343.6201" fill="#ADD1B2" rx="11" ry="11" style="stroke:#181818;stroke-width:1.0;"/><path d="M585.3281,348.9795 Q583.4688,348.9795 582.375,347.5889 Q581.2813,346.1982 581.2813,343.2139 Q581.2813,340.6826 582.4453,339.0264 Q583.6094,337.3701 585.5938,337.3701 Q587.0625,337.3701 587.5313,337.4951 Q588,337.6982 588,337.6982 Q588,337.6982 588,337.6279 Q588,337.5576 588.6094,336.6357 L589.6563,340.292 L588.3281,340.6982 Q587.8594,339.1514 587.1953,338.4873 Q586.5313,337.8232 585.4688,337.8232 Q585.0781,337.8232 584.3125,339.3545 Q583.5469,340.8857 583.5469,343.1357 Q583.5469,345.6045 584.2109,346.9951 Q584.875,348.3857 585.4063,348.3857 Q586.4688,348.3857 587.2266,347.6201 Q587.9844,346.8545 588.3281,345.1982 L589.6563,345.792 Q589.3281,347.1982 588.4297,348.0889 Q587.5313,348.9795 585.3281,348.9795 Z " fill="#000000"/><text fill="#000000" font-family="sans-serif" font-size="14" lengthAdjust="spacing" textLength="36" x="607.25" y="350.104">Team</text><line style="stroke:#181818;stroke-width:0.5;" x1="475" x2="743" y1="359.6201" y2="359.6201"/><rect fill="none" height="6" style="stroke:#C82930;stroke-width:1.0;" width="6" x="482" y="371.6802"/><text fill="#000000" font-family="sans-serif" font-size="14" lengthAdjust="spacing" textLength="80" x="494" y="379.6641">name: String</text><rect fill="none" height="6" style="stroke:#C82930;stroke-width:1.0;" width="6" x="482" y="390.8003"/><text fill="#000000" font-family="sans-serif" font-size="14" lengthAdjust="spacing" textLength="169" x="494" y="398.7842">members: List&lt;Developer&gt;</text><line style="stroke:#181818;stroke-width:0.5;" x1="475" x2="743" y1="405.8604" y2="405.8604"/><ellipse cx="485" cy="420.9204" fill="#84BE84" rx="3" ry="3" style="stroke:#038048;stroke-width:1.0;"/><text fill="#000000" font-family="sans-serif" font-size="14" lengthAdjust="spacing" textLength="221" x="494" y="425.9043">addMember(developer: Developer)</text><ellipse cx="485" cy="440.0405" fill="#84BE84" rx="3" ry="3" style="stroke:#038048;stroke-width:1.0;"/><text fill="#000000" font-family="sans-serif" font-size="14" lengthAdjust="spacing" textLength="244" x="494" y="445.0244">removeMember(developer: Developer)</text></g><!--class Developer--><g id="elem_Developer"><rect codeLine="45" fill="#F1F1F1" height="86.2402" id="Developer" rx="2.5" ry="2.5" style="stroke:#181818;stroke-width:0.5;" width="106" x="401" y="550.1201"/><ellipse cx="420.05" cy="566.1201" fill="#ADD1B2" rx="11" ry="11" style="stroke:#181818;stroke-width:1.0;"/><path d="M418.6281,571.4795 Q416.7688,571.4795 415.675,570.0889 Q414.5813,568.6982 414.5813,565.7139 Q414.5813,563.1826 415.7453,561.5264 Q416.9094,559.8701 418.8938,559.8701 Q420.3625,559.8701 420.8313,559.9951 Q421.3,560.1982 421.3,560.1982 Q421.3,560.1982 421.3,560.1279 Q421.3,560.0576 421.9094,559.1357 L422.9563,562.792 L421.6281,563.1982 Q421.1594,561.6514 420.4953,560.9873 Q419.8313,560.3232 418.7688,560.3232 Q418.3781,560.3232 417.6125,561.8545 Q416.8469,563.3857 416.8469,565.6357 Q416.8469,568.1045 417.5109,569.4951 Q418.175,570.8857 418.7063,570.8857 Q419.7688,570.8857 420.5266,570.1201 Q421.2844,569.3545 421.6281,567.6982 L422.9563,568.292 Q422.6281,569.6982 421.7297,570.5889 Q420.8313,571.4795 418.6281,571.4795 Z " fill="#000000"/><text fill="#000000" font-family="sans-serif" font-size="14" lengthAdjust="spacing" textLength="65" x="434.95" y="572.604">Developer</text><line style="stroke:#181818;stroke-width:0.5;" x1="402" x2="506" y1="582.1201" y2="582.1201"/><rect fill="none" height="6" style="stroke:#C82930;stroke-width:1.0;" width="6" x="409" y="594.1802"/><text fill="#000000" font-family="sans-serif" font-size="14" lengthAdjust="spacing" textLength="80" x="421" y="602.1641">name: String</text><rect fill="none" height="6" style="stroke:#C82930;stroke-width:1.0;" width="6" x="409" y="613.3003"/><text fill="#000000" font-family="sans-serif" font-size="14" lengthAdjust="spacing" textLength="78" x="421" y="621.2842">email: String</text><line style="stroke:#181818;stroke-width:0.5;" x1="402" x2="506" y1="628.3604" y2="628.3604"/></g><!--link Product to UserStory--><g id="link_Product_UserStory"><path codeLine="50" d="M189.21,210.2801 C204.42,234.7701 221.75,262.6501 238.1,288.9801 " fill="none" id="Product-UserStory" style="stroke:#181818;stroke-width:1.0;"/><text fill="#000000" font-family="sans-serif" font-size="13" lengthAdjust="spacing" textLength="7" x="185.963" y="232.6671">1</text><text fill="#000000" font-family="sans-serif" font-size="13" lengthAdjust="spacing" textLength="20" x="212.3705" y="278.2126">0..*</text></g><!--link Sprint to UserStory--><g id="link_Sprint_UserStory"><path codeLine="51" d="M399.68,229.2001 C387.55,248.6001 374.66,269.2101 362.31,288.9601 " fill="none" id="Sprint-UserStory" style="stroke:#181818;stroke-width:1.0;"/><text fill="#000000" font-family="sans-serif" font-size="13" lengthAdjust="spacing" textLength="7" x="388.1" y="251.7571">1</text><text fill="#000000" font-family="sans-serif" font-size="13" lengthAdjust="spacing" textLength="20" x="346.4785" y="278.191">0..*</text></g><!--link Team to Developer--><g id="link_Team_Developer"><path codeLine="52" d="M562.07,451.6201 C537.66,483.3601 508.43,521.3701 486.52,549.8401 " fill="none" id="Team-Developer" style="stroke:#181818;stroke-width:1.0;"/><text fill="#000000" font-family="sans-serif" font-size="13" lengthAdjust="spacing" textLength="7" x="548.9238" y="475.1269">1</text><text fill="#000000" font-family="sans-serif" font-size="13" lengthAdjust="spacing" textLength="20" x="470.2499" y="539.2046">0..*</text></g><!--link UserStory to Developer--><g id="link_UserStory_Developer"><path codeLine="53" d="M376.1,490.1901 C392.16,511.2101 408.28,532.3001 421.65,549.7901 " fill="none" id="UserStory-Developer" style="stroke:#181818;stroke-width:1.0;"/><text fill="#000000" font-family="sans-serif" font-size="13" lengthAdjust="spacing" textLength="22" x="358.8808" y="513.127">0..1</text><text fill="#000000" font-family="sans-serif" font-size="13" lengthAdjust="spacing" textLength="22" x="392.4702" y="539.1463">0..1</text></g></g></svg>