<?xml version="1.0" encoding="UTF-8" standalone="no"?><svg xmlns="http://www.w3.org/2000/svg" xmlns:xlink="http://www.w3.org/1999/xlink" contentStyleType="text/css" height="278px" preserveAspectRatio="none" style="width:558px;height:278px;background:#FFFFFF;" version="1.1" viewBox="0 0 558 278" width="558px" zoomAndPan="magnify"><defs/><g><!--class 产品已创建--><g id="elem_产品已创建"><rect codeLine="1" fill="#F1F1F1" height="48" id="产品已创建" rx="2.5" ry="2.5" style="stroke:#181818;stroke-width:0.5;" width="102" x="28" y="7"/><ellipse cx="43" cy="23" fill="#ADD1B2" rx="11" ry="11" style="stroke:#181818;stroke-width:1.0;"/><path d="M41.5781,28.3594 Q39.7188,28.3594 38.625,26.9688 Q37.5313,25.5781 37.5313,22.5938 Q37.5313,20.0625 38.6953,18.4063 Q39.8594,16.75 41.8438,16.75 Q43.3125,16.75 43.7813,16.875 Q44.25,17.0781 44.25,17.0781 Q44.25,17.0781 44.25,17.0078 Q44.25,16.9375 44.8594,16.0156 L45.9063,19.6719 L44.5781,20.0781 Q44.1094,18.5313 43.4453,17.8672 Q42.7813,17.2031 41.7188,17.2031 Q41.3281,17.2031 40.5625,18.7344 Q39.7969,20.2656 39.7969,22.5156 Q39.7969,24.9844 40.4609,26.375 Q41.125,27.7656 41.6563,27.7656 Q42.7188,27.7656 43.4766,27 Q44.2344,26.2344 44.5781,24.5781 L45.9063,25.1719 Q45.5781,26.5781 44.6797,27.4688 Q43.7813,28.3594 41.5781,28.3594 Z " fill="#000000"/><text fill="#000000" font-family="sans-serif" font-size="14" lengthAdjust="spacing" textLength="70" x="57" y="29.4839">产品已创建</text><line style="stroke:#181818;stroke-width:0.5;" x1="29" x2="129" y1="39" y2="39"/><line style="stroke:#181818;stroke-width:0.5;" x1="29" x2="129" y1="47" y2="47"/></g><!--class 产品待办清单已添加--><g id="elem_产品待办清单已添加"><rect codeLine="2" fill="#F1F1F1" height="48" id="产品待办清单已添加" rx="2.5" ry="2.5" style="stroke:#181818;stroke-width:0.5;" width="158" x="165" y="7"/><ellipse cx="180" cy="23" fill="#ADD1B2" rx="11" ry="11" style="stroke:#181818;stroke-width:1.0;"/><path d="M178.5781,28.3594 Q176.7188,28.3594 175.625,26.9688 Q174.5313,25.5781 174.5313,22.5938 Q174.5313,20.0625 175.6953,18.4063 Q176.8594,16.75 178.8438,16.75 Q180.3125,16.75 180.7813,16.875 Q181.25,17.0781 181.25,17.0781 Q181.25,17.0781 181.25,17.0078 Q181.25,16.9375 181.8594,16.0156 L182.9063,19.6719 L181.5781,20.0781 Q181.1094,18.5313 180.4453,17.8672 Q179.7813,17.2031 178.7188,17.2031 Q178.3281,17.2031 177.5625,18.7344 Q176.7969,20.2656 176.7969,22.5156 Q176.7969,24.9844 177.4609,26.375 Q178.125,27.7656 178.6563,27.7656 Q179.7188,27.7656 180.4766,27 Q181.2344,26.2344 181.5781,24.5781 L182.9063,25.1719 Q182.5781,26.5781 181.6797,27.4688 Q180.7813,28.3594 178.5781,28.3594 Z " fill="#000000"/><text fill="#000000" font-family="sans-serif" font-size="14" lengthAdjust="spacing" textLength="126" x="194" y="29.4839">产品待办清单已添加</text><line style="stroke:#181818;stroke-width:0.5;" x1="166" x2="322" y1="39" y2="39"/><line style="stroke:#181818;stroke-width:0.5;" x1="166" x2="322" y1="47" y2="47"/></g><!--class 待办项已添加--><g id="elem_待办项已添加"><rect codeLine="3" fill="#F1F1F1" height="48" id="待办项已添加" rx="2.5" ry="2.5" style="stroke:#181818;stroke-width:0.5;" width="116" x="358" y="7"/><ellipse cx="373" cy="23" fill="#ADD1B2" rx="11" ry="11" style="stroke:#181818;stroke-width:1.0;"/><path d="M371.5781,28.3594 Q369.7188,28.3594 368.625,26.9688 Q367.5313,25.5781 367.5313,22.5938 Q367.5313,20.0625 368.6953,18.4063 Q369.8594,16.75 371.8438,16.75 Q373.3125,16.75 373.7813,16.875 Q374.25,17.0781 374.25,17.0781 Q374.25,17.0781 374.25,17.0078 Q374.25,16.9375 374.8594,16.0156 L375.9063,19.6719 L374.5781,20.0781 Q374.1094,18.5313 373.4453,17.8672 Q372.7813,17.2031 371.7188,17.2031 Q371.3281,17.2031 370.5625,18.7344 Q369.7969,20.2656 369.7969,22.5156 Q369.7969,24.9844 370.4609,26.375 Q371.125,27.7656 371.6563,27.7656 Q372.7188,27.7656 373.4766,27 Q374.2344,26.2344 374.5781,24.5781 L375.9063,25.1719 Q375.5781,26.5781 374.6797,27.4688 Q373.7813,28.3594 371.5781,28.3594 Z " fill="#000000"/><text fill="#000000" font-family="sans-serif" font-size="14" lengthAdjust="spacing" textLength="84" x="387" y="29.4839">待办项已添加</text><line style="stroke:#181818;stroke-width:0.5;" x1="359" x2="473" y1="39" y2="39"/><line style="stroke:#181818;stroke-width:0.5;" x1="359" x2="473" y1="47" y2="47"/></g><!--class 待办项描述已添加--><g id="elem_待办项描述已添加"><rect codeLine="4" fill="#F1F1F1" height="48" id="待办项描述已添加" rx="2.5" ry="2.5" style="stroke:#181818;stroke-width:0.5;" width="144" x="7" y="115"/><ellipse cx="22" cy="131" fill="#ADD1B2" rx="11" ry="11" style="stroke:#181818;stroke-width:1.0;"/><path d="M20.5781,136.3594 Q18.7188,136.3594 17.625,134.9688 Q16.5313,133.5781 16.5313,130.5938 Q16.5313,128.0625 17.6953,126.4063 Q18.8594,124.75 20.8438,124.75 Q22.3125,124.75 22.7813,124.875 Q23.25,125.0781 23.25,125.0781 Q23.25,125.0781 23.25,125.0078 Q23.25,124.9375 23.8594,124.0156 L24.9063,127.6719 L23.5781,128.0781 Q23.1094,126.5313 22.4453,125.8672 Q21.7813,125.2031 20.7188,125.2031 Q20.3281,125.2031 19.5625,126.7344 Q18.7969,128.2656 18.7969,130.5156 Q18.7969,132.9844 19.4609,134.375 Q20.125,135.7656 20.6563,135.7656 Q21.7188,135.7656 22.4766,135 Q23.2344,134.2344 23.5781,132.5781 L24.9063,133.1719 Q24.5781,134.5781 23.6797,135.4688 Q22.7813,136.3594 20.5781,136.3594 Z " fill="#000000"/><text fill="#000000" font-family="sans-serif" font-size="14" lengthAdjust="spacing" textLength="112" x="36" y="137.4839">待办项描述已添加</text><line style="stroke:#181818;stroke-width:0.5;" x1="8" x2="150" y1="147" y2="147"/><line style="stroke:#181818;stroke-width:0.5;" x1="8" x2="150" y1="155" y2="155"/></g><!--class 待办项验收条件已添加--><g id="elem_待办项验收条件已添加"><rect codeLine="5" fill="#F1F1F1" height="48" id="待办项验收条件已添加" rx="2.5" ry="2.5" style="stroke:#181818;stroke-width:0.5;" width="172" x="186" y="115"/><ellipse cx="201" cy="131" fill="#ADD1B2" rx="11" ry="11" style="stroke:#181818;stroke-width:1.0;"/><path d="M199.5781,136.3594 Q197.7188,136.3594 196.625,134.9688 Q195.5313,133.5781 195.5313,130.5938 Q195.5313,128.0625 196.6953,126.4063 Q197.8594,124.75 199.8438,124.75 Q201.3125,124.75 201.7813,124.875 Q202.25,125.0781 202.25,125.0781 Q202.25,125.0781 202.25,125.0078 Q202.25,124.9375 202.8594,124.0156 L203.9063,127.6719 L202.5781,128.0781 Q202.1094,126.5313 201.4453,125.8672 Q200.7813,125.2031 199.7188,125.2031 Q199.3281,125.2031 198.5625,126.7344 Q197.7969,128.2656 197.7969,130.5156 Q197.7969,132.9844 198.4609,134.375 Q199.125,135.7656 199.6563,135.7656 Q200.7188,135.7656 201.4766,135 Q202.2344,134.2344 202.5781,132.5781 L203.9063,133.1719 Q203.5781,134.5781 202.6797,135.4688 Q201.7813,136.3594 199.5781,136.3594 Z " fill="#000000"/><text fill="#000000" font-family="sans-serif" font-size="14" lengthAdjust="spacing" textLength="140" x="215" y="137.4839">待办项验收条件已添加</text><line style="stroke:#181818;stroke-width:0.5;" x1="187" x2="357" y1="147" y2="147"/><line style="stroke:#181818;stroke-width:0.5;" x1="187" x2="357" y1="155" y2="155"/></g><!--class 待办项优先级已调整--><g id="elem_待办项优先级已调整"><rect codeLine="6" fill="#F1F1F1" height="48" id="待办项优先级已调整" rx="2.5" ry="2.5" style="stroke:#181818;stroke-width:0.5;" width="158" x="393" y="115"/><ellipse cx="408" cy="131" fill="#ADD1B2" rx="11" ry="11" style="stroke:#181818;stroke-width:1.0;"/><path d="M406.5781,136.3594 Q404.7188,136.3594 403.625,134.9688 Q402.5313,133.5781 402.5313,130.5938 Q402.5313,128.0625 403.6953,126.4063 Q404.8594,124.75 406.8438,124.75 Q408.3125,124.75 408.7813,124.875 Q409.25,125.0781 409.25,125.0781 Q409.25,125.0781 409.25,125.0078 Q409.25,124.9375 409.8594,124.0156 L410.9063,127.6719 L409.5781,128.0781 Q409.1094,126.5313 408.4453,125.8672 Q407.7813,125.2031 406.7188,125.2031 Q406.3281,125.2031 405.5625,126.7344 Q404.7969,128.2656 404.7969,130.5156 Q404.7969,132.9844 405.4609,134.375 Q406.125,135.7656 406.6563,135.7656 Q407.7188,135.7656 408.4766,135 Q409.2344,134.2344 409.5781,132.5781 L410.9063,133.1719 Q410.5781,134.5781 409.6797,135.4688 Q408.7813,136.3594 406.5781,136.3594 Z " fill="#000000"/><text fill="#000000" font-family="sans-serif" font-size="14" lengthAdjust="spacing" textLength="126" x="422" y="137.4839">待办项优先级已调整</text><line style="stroke:#181818;stroke-width:0.5;" x1="394" x2="550" y1="147" y2="147"/><line style="stroke:#181818;stroke-width:0.5;" x1="394" x2="550" y1="155" y2="155"/></g><!--class 故事点已添加--><g id="elem_故事点已添加"><rect codeLine="7" fill="#F1F1F1" height="48" id="故事点已添加" rx="2.5" ry="2.5" style="stroke:#181818;stroke-width:0.5;" width="116" x="21" y="223"/><ellipse cx="36" cy="239" fill="#ADD1B2" rx="11" ry="11" style="stroke:#181818;stroke-width:1.0;"/><path d="M34.5781,244.3594 Q32.7188,244.3594 31.625,242.9688 Q30.5313,241.5781 30.5313,238.5938 Q30.5313,236.0625 31.6953,234.4063 Q32.8594,232.75 34.8438,232.75 Q36.3125,232.75 36.7813,232.875 Q37.25,233.0781 37.25,233.0781 Q37.25,233.0781 37.25,233.0078 Q37.25,232.9375 37.8594,232.0156 L38.9063,235.6719 L37.5781,236.0781 Q37.1094,234.5313 36.4453,233.8672 Q35.7813,233.2031 34.7188,233.2031 Q34.3281,233.2031 33.5625,234.7344 Q32.7969,236.2656 32.7969,238.5156 Q32.7969,240.9844 33.4609,242.375 Q34.125,243.7656 34.6563,243.7656 Q35.7188,243.7656 36.4766,243 Q37.2344,242.2344 37.5781,240.5781 L38.9063,241.1719 Q38.5781,242.5781 37.6797,243.4688 Q36.7813,244.3594 34.5781,244.3594 Z " fill="#000000"/><text fill="#000000" font-family="sans-serif" font-size="14" lengthAdjust="spacing" textLength="84" x="50" y="245.4839">故事点已添加</text><line style="stroke:#181818;stroke-width:0.5;" x1="22" x2="136" y1="255" y2="255"/><line style="stroke:#181818;stroke-width:0.5;" x1="22" x2="136" y1="263" y2="263"/></g></g></svg>