<?xml version="1.0" encoding="UTF-8" standalone="no"?><svg xmlns="http://www.w3.org/2000/svg" xmlns:xlink="http://www.w3.org/1999/xlink" contentStyleType="text/css" height="808px" preserveAspectRatio="none" style="width:836px;height:808px;background:#FFFFFF;" version="1.1" viewBox="0 0 836 808" width="836px" zoomAndPan="magnify"><defs/><g><text fill="#000000" font-family="sans-serif" font-size="14" font-weight="bold" lengthAdjust="spacing" textLength="342" x="240" y="26.0439">Agile Project Management System Domain Model</text><!--class Product--><g id="elem_Product"><rect codeLine="3" fill="#F1F1F1" height="143.6006" id="Product" rx="2.5" ry="2.5" style="stroke:#181818;stroke-width:0.5;" width="276" x="553" y="231.1201"/><ellipse cx="662.25" cy="247.1201" fill="#ADD1B2" rx="11" ry="11" style="stroke:#181818;stroke-width:1.0;"/><path d="M660.8281,252.4795 Q658.9688,252.4795 657.875,251.0889 Q656.7813,249.6982 656.7813,246.7139 Q656.7813,244.1826 657.9453,242.5264 Q659.1094,240.8701 661.0938,240.8701 Q662.5625,240.8701 663.0313,240.9951 Q663.5,241.1982 663.5,241.1982 Q663.5,241.1982 663.5,241.1279 Q663.5,241.0576 664.1094,240.1357 L665.1563,243.792 L663.8281,244.1982 Q663.3594,242.6514 662.6953,241.9873 Q662.0313,241.3232 660.9688,241.3232 Q660.5781,241.3232 659.8125,242.8545 Q659.0469,244.3857 659.0469,246.6357 Q659.0469,249.1045 659.7109,250.4951 Q660.375,251.8857 660.9063,251.8857 Q661.9688,251.8857 662.7266,251.1201 Q663.4844,250.3545 663.8281,248.6982 L665.1563,249.292 Q664.8281,250.6982 663.9297,251.5889 Q663.0313,252.4795 660.8281,252.4795 Z " fill="#000000"/><text fill="#000000" font-family="sans-serif" font-size="14" lengthAdjust="spacing" textLength="49" x="682.75" y="253.604">Product</text><line style="stroke:#181818;stroke-width:0.5;" x1="554" x2="828" y1="263.1201" y2="263.1201"/><rect fill="none" height="6" style="stroke:#C82930;stroke-width:1.0;" width="6" x="561" y="275.1802"/><text fill="#000000" font-family="sans-serif" font-size="14" lengthAdjust="spacing" textLength="80" x="573" y="283.1641">name: String</text><rect fill="none" height="6" style="stroke:#C82930;stroke-width:1.0;" width="6" x="561" y="294.3003"/><text fill="#000000" font-family="sans-serif" font-size="14" lengthAdjust="spacing" textLength="157" x="573" y="302.2842">backlog: List&lt;UserStory&gt;</text><line style="stroke:#181818;stroke-width:0.5;" x1="554" x2="828" y1="309.3604" y2="309.3604"/><ellipse cx="564" cy="324.4204" fill="#84BE84" rx="3" ry="3" style="stroke:#038048;stroke-width:1.0;"/><text fill="#000000" font-family="sans-serif" font-size="14" lengthAdjust="spacing" textLength="227" x="573" y="329.4043">addUserStory(userStory: UserStory)</text><ellipse cx="564" cy="343.5405" fill="#84BE84" rx="3" ry="3" style="stroke:#038048;stroke-width:1.0;"/><text fill="#000000" font-family="sans-serif" font-size="14" lengthAdjust="spacing" textLength="250" x="573" y="348.5244">removeUserStory(userStory: UserStory)</text><ellipse cx="564" cy="362.6606" fill="#84BE84" rx="3" ry="3" style="stroke:#038048;stroke-width:1.0;"/><text fill="#000000" font-family="sans-serif" font-size="14" lengthAdjust="spacing" textLength="167" x="573" y="367.6445">sortUserStoriesByPriority()</text></g><!--class UserStory--><g id="elem_UserStory"><rect codeLine="11" fill="#F1F1F1" height="200.9609" id="UserStory" rx="2.5" ry="2.5" style="stroke:#181818;stroke-width:0.5;" width="277" x="312.5" y="454.1201"/><ellipse cx="415.75" cy="470.1201" fill="#ADD1B2" rx="11" ry="11" style="stroke:#181818;stroke-width:1.0;"/><path d="M414.3281,475.4795 Q412.4688,475.4795 411.375,474.0889 Q410.2813,472.6982 410.2813,469.7139 Q410.2813,467.1826 411.4453,465.5264 Q412.6094,463.8701 414.5938,463.8701 Q416.0625,463.8701 416.5313,463.9951 Q417,464.1982 417,464.1982 Q417,464.1982 417,464.1279 Q417,464.0576 417.6094,463.1357 L418.6563,466.792 L417.3281,467.1982 Q416.8594,465.6514 416.1953,464.9873 Q415.5313,464.3232 414.4688,464.3232 Q414.0781,464.3232 413.3125,465.8545 Q412.5469,467.3857 412.5469,469.6357 Q412.5469,472.1045 413.2109,473.4951 Q413.875,474.8857 414.4063,474.8857 Q415.4688,474.8857 416.2266,474.1201 Q416.9844,473.3545 417.3281,471.6982 L418.6563,472.292 Q418.3281,473.6982 417.4297,474.5889 Q416.5313,475.4795 414.3281,475.4795 Z " fill="#000000"/><text fill="#000000" font-family="sans-serif" font-size="14" lengthAdjust="spacing" textLength="62" x="436.25" y="476.604">UserStory</text><line style="stroke:#181818;stroke-width:0.5;" x1="313.5" x2="588.5" y1="486.1201" y2="486.1201"/><rect fill="none" height="6" style="stroke:#C82930;stroke-width:1.0;" width="6" x="320.5" y="498.1802"/><text fill="#000000" font-family="sans-serif" font-size="14" lengthAdjust="spacing" textLength="114" x="332.5" y="506.1641">description: String</text><rect fill="none" height="6" style="stroke:#C82930;stroke-width:1.0;" width="6" x="320.5" y="517.3003"/><text fill="#000000" font-family="sans-serif" font-size="14" lengthAdjust="spacing" textLength="202" x="332.5" y="525.2842">acceptanceCriteria: List&lt;String&gt;</text><rect fill="none" height="6" style="stroke:#C82930;stroke-width:1.0;" width="6" x="320.5" y="536.4204"/><text fill="#000000" font-family="sans-serif" font-size="14" lengthAdjust="spacing" textLength="93" x="332.5" y="544.4043">storyPoints: int</text><rect fill="none" height="6" style="stroke:#C82930;stroke-width:1.0;" width="6" x="320.5" y="555.5405"/><text fill="#000000" font-family="sans-serif" font-size="14" lengthAdjust="spacing" textLength="66" x="332.5" y="563.5244">priority: int</text><rect fill="none" height="6" style="stroke:#C82930;stroke-width:1.0;" width="6" x="320.5" y="574.6606"/><text fill="#000000" font-family="sans-serif" font-size="14" lengthAdjust="spacing" textLength="86" x="332.5" y="582.6445">status: Status</text><rect fill="none" height="6" style="stroke:#C82930;stroke-width:1.0;" width="6" x="320.5" y="593.7808"/><text fill="#000000" font-family="sans-serif" font-size="14" lengthAdjust="spacing" textLength="130" x="332.5" y="601.7646">assignee: Developer</text><line style="stroke:#181818;stroke-width:0.5;" x1="313.5" x2="588.5" y1="608.8408" y2="608.8408"/><ellipse cx="323.5" cy="623.9009" fill="#84BE84" rx="3" ry="3" style="stroke:#038048;stroke-width:1.0;"/><text fill="#000000" font-family="sans-serif" font-size="14" lengthAdjust="spacing" textLength="183" x="332.5" y="628.8848">changeStatus(status: Status)</text><ellipse cx="323.5" cy="643.021" fill="#84BE84" rx="3" ry="3" style="stroke:#038048;stroke-width:1.0;"/><text fill="#000000" font-family="sans-serif" font-size="14" lengthAdjust="spacing" textLength="251" x="332.5" y="648.0049">changeAssignee(developer: Developer)</text></g><!--class Status--><g id="elem_Status"><rect codeLine="22" fill="#F1F1F1" height="105.3604" id="Status" rx="2.5" ry="2.5" style="stroke:#181818;stroke-width:0.5;" width="72" x="657" y="47.1201"/><ellipse cx="672" cy="63.1201" fill="#EB937F" rx="11" ry="11" style="stroke:#181818;stroke-width:1.0;"/><path d="M668.5313,57.4014 L668.5313,56.9951 L676.0469,56.9951 L676.7656,59.2607 L675.5938,59.7139 Q674.9063,58.3857 674.3125,57.8936 Q673.7188,57.4014 672.9844,57.4014 L671.125,57.4014 Q671.125,57.4014 671.2578,57.5342 Q671.3906,57.667 671.3906,57.9326 L671.3906,62.042 L672.4531,62.042 Q673.1094,62.042 673.4141,61.7139 Q673.7188,61.3857 673.7188,60.7139 L673.7188,60.3232 L675.1094,60.3232 L675.1094,64.2295 L673.7188,64.2295 L673.7188,63.9639 Q673.7188,63.2451 673.4141,62.8467 Q673.1094,62.4482 672.4531,62.4482 L671.5313,62.4482 L671.5313,67.417 Q671.5313,67.6826 671.6953,67.8154 Q671.8594,67.9482 671.8594,67.9482 L672.8438,67.9482 Q673.8438,67.9482 674.5391,67.3857 Q675.2344,66.8232 675.75,65.3076 L676.9688,65.7607 L676.2344,68.3545 L668.4688,68.3545 L668.4688,67.9482 L668.8594,67.9482 Q669.2031,67.9482 669.3359,67.8154 Q669.4688,67.6826 669.4688,67.417 L669.4688,57.9326 Q669.4688,57.667 669.3359,57.5342 Q669.2031,57.4014 668.8594,57.4014 L668.5313,57.4014 Z " fill="#000000"/><text fill="#000000" font-family="sans-serif" font-size="14" lengthAdjust="spacing" textLength="40" x="686" y="69.604">Status</text><line style="stroke:#181818;stroke-width:0.5;" x1="658" x2="728" y1="79.1201" y2="79.1201"/><text fill="#000000" font-family="sans-serif" font-size="14" lengthAdjust="spacing" textLength="41" x="663" y="99.1641">TODO</text><text fill="#000000" font-family="sans-serif" font-size="14" lengthAdjust="spacing" textLength="44" x="663" y="118.2842">DOING</text><text fill="#000000" font-family="sans-serif" font-size="14" lengthAdjust="spacing" textLength="39" x="663" y="137.4043">DONE</text><line style="stroke:#181818;stroke-width:0.5;" x1="658" x2="728" y1="144.4805" y2="144.4805"/></g><!--class Sprint--><g id="elem_Sprint"><rect codeLine="28" fill="#F1F1F1" height="181.8408" id="Sprint" rx="2.5" ry="2.5" style="stroke:#181818;stroke-width:0.5;" width="276" x="73" y="212.1201"/><ellipse cx="188.25" cy="228.1201" fill="#ADD1B2" rx="11" ry="11" style="stroke:#181818;stroke-width:1.0;"/><path d="M186.8281,233.4795 Q184.9688,233.4795 183.875,232.0889 Q182.7813,230.6982 182.7813,227.7139 Q182.7813,225.1826 183.9453,223.5264 Q185.1094,221.8701 187.0938,221.8701 Q188.5625,221.8701 189.0313,221.9951 Q189.5,222.1982 189.5,222.1982 Q189.5,222.1982 189.5,222.1279 Q189.5,222.0576 190.1094,221.1357 L191.1563,224.792 L189.8281,225.1982 Q189.3594,223.6514 188.6953,222.9873 Q188.0313,222.3232 186.9688,222.3232 Q186.5781,222.3232 185.8125,223.8545 Q185.0469,225.3857 185.0469,227.6357 Q185.0469,230.1045 185.7109,231.4951 Q186.375,232.8857 186.9063,232.8857 Q187.9688,232.8857 188.7266,232.1201 Q189.4844,231.3545 189.8281,229.6982 L191.1563,230.292 Q190.8281,231.6982 189.9297,232.5889 Q189.0313,233.4795 186.8281,233.4795 Z " fill="#000000"/><text fill="#000000" font-family="sans-serif" font-size="14" lengthAdjust="spacing" textLength="37" x="208.75" y="234.604">Sprint</text><line style="stroke:#181818;stroke-width:0.5;" x1="74" x2="348" y1="244.1201" y2="244.1201"/><rect fill="none" height="6" style="stroke:#C82930;stroke-width:1.0;" width="6" x="81" y="256.1802"/><text fill="#000000" font-family="sans-serif" font-size="14" lengthAdjust="spacing" textLength="80" x="93" y="264.1641">name: String</text><rect fill="none" height="6" style="stroke:#C82930;stroke-width:1.0;" width="6" x="81" y="275.3003"/><text fill="#000000" font-family="sans-serif" font-size="14" lengthAdjust="spacing" textLength="75" x="93" y="283.2842">capacity: int</text><rect fill="none" height="6" style="stroke:#C82930;stroke-width:1.0;" width="6" x="81" y="294.4204"/><text fill="#000000" font-family="sans-serif" font-size="14" lengthAdjust="spacing" textLength="157" x="93" y="302.4043">backlog: List&lt;UserStory&gt;</text><rect fill="none" height="6" style="stroke:#C82930;stroke-width:1.0;" width="6" x="81" y="313.5405"/><text fill="#000000" font-family="sans-serif" font-size="14" lengthAdjust="spacing" textLength="75" x="93" y="321.5244">team: Team</text><line style="stroke:#181818;stroke-width:0.5;" x1="74" x2="348" y1="328.6006" y2="328.6006"/><ellipse cx="84" cy="343.6606" fill="#84BE84" rx="3" ry="3" style="stroke:#038048;stroke-width:1.0;"/><text fill="#000000" font-family="sans-serif" font-size="14" lengthAdjust="spacing" textLength="227" x="93" y="348.6445">addUserStory(userStory: UserStory)</text><ellipse cx="84" cy="362.7808" fill="#84BE84" rx="3" ry="3" style="stroke:#038048;stroke-width:1.0;"/><text fill="#000000" font-family="sans-serif" font-size="14" lengthAdjust="spacing" textLength="250" x="93" y="367.7646">removeUserStory(userStory: UserStory)</text><ellipse cx="84" cy="381.9009" fill="#84BE84" rx="3" ry="3" style="stroke:#038048;stroke-width:1.0;"/><text fill="#000000" font-family="sans-serif" font-size="14" lengthAdjust="spacing" textLength="193" x="93" y="386.8848">calculateTotalStoryPoints(): int</text></g><!--class Team--><g id="elem_Team"><rect codeLine="38" fill="#F1F1F1" height="124.4805" id="Team" rx="2.5" ry="2.5" style="stroke:#181818;stroke-width:0.5;" width="270" x="7" y="492.6201"/><ellipse cx="119.75" cy="508.6201" fill="#ADD1B2" rx="11" ry="11" style="stroke:#181818;stroke-width:1.0;"/><path d="M118.3281,513.9795 Q116.4688,513.9795 115.375,512.5889 Q114.2813,511.1982 114.2813,508.2139 Q114.2813,505.6826 115.4453,504.0264 Q116.6094,502.3701 118.5938,502.3701 Q120.0625,502.3701 120.5313,502.4951 Q121,502.6982 121,502.6982 Q121,502.6982 121,502.6279 Q121,502.5576 121.6094,501.6357 L122.6563,505.292 L121.3281,505.6982 Q120.8594,504.1514 120.1953,503.4873 Q119.5313,502.8232 118.4688,502.8232 Q118.0781,502.8232 117.3125,504.3545 Q116.5469,505.8857 116.5469,508.1357 Q116.5469,510.6045 117.2109,511.9951 Q117.875,513.3857 118.4063,513.3857 Q119.4688,513.3857 120.2266,512.6201 Q120.9844,511.8545 121.3281,510.1982 L122.6563,510.792 Q122.3281,512.1982 121.4297,513.0889 Q120.5313,513.9795 118.3281,513.9795 Z " fill="#000000"/><text fill="#000000" font-family="sans-serif" font-size="14" lengthAdjust="spacing" textLength="36" x="140.25" y="515.104">Team</text><line style="stroke:#181818;stroke-width:0.5;" x1="8" x2="276" y1="524.6201" y2="524.6201"/><rect fill="none" height="6" style="stroke:#C82930;stroke-width:1.0;" width="6" x="15" y="536.6802"/><text fill="#000000" font-family="sans-serif" font-size="14" lengthAdjust="spacing" textLength="80" x="27" y="544.6641">name: String</text><rect fill="none" height="6" style="stroke:#C82930;stroke-width:1.0;" width="6" x="15" y="555.8003"/><text fill="#000000" font-family="sans-serif" font-size="14" lengthAdjust="spacing" textLength="169" x="27" y="563.7842">members: List&lt;Developer&gt;</text><line style="stroke:#181818;stroke-width:0.5;" x1="8" x2="276" y1="570.8604" y2="570.8604"/><ellipse cx="18" cy="585.9204" fill="#84BE84" rx="3" ry="3" style="stroke:#038048;stroke-width:1.0;"/><text fill="#000000" font-family="sans-serif" font-size="14" lengthAdjust="spacing" textLength="221" x="27" y="590.9043">addMember(developer: Developer)</text><ellipse cx="18" cy="605.0405" fill="#84BE84" rx="3" ry="3" style="stroke:#038048;stroke-width:1.0;"/><text fill="#000000" font-family="sans-serif" font-size="14" lengthAdjust="spacing" textLength="244" x="27" y="610.0244">removeMember(developer: Developer)</text></g><!--class Developer--><g id="elem_Developer"><rect codeLine="45" fill="#F1F1F1" height="86.2402" id="Developer" rx="2.5" ry="2.5" style="stroke:#181818;stroke-width:0.5;" width="106" x="243" y="715.1201"/><ellipse cx="262.05" cy="731.1201" fill="#ADD1B2" rx="11" ry="11" style="stroke:#181818;stroke-width:1.0;"/><path d="M260.6281,736.4795 Q258.7688,736.4795 257.675,735.0889 Q256.5813,733.6982 256.5813,730.7139 Q256.5813,728.1826 257.7453,726.5264 Q258.9094,724.8701 260.8938,724.8701 Q262.3625,724.8701 262.8313,724.9951 Q263.3,725.1982 263.3,725.1982 Q263.3,725.1982 263.3,725.1279 Q263.3,725.0576 263.9094,724.1357 L264.9563,727.792 L263.6281,728.1982 Q263.1594,726.6514 262.4953,725.9873 Q261.8313,725.3232 260.7688,725.3232 Q260.3781,725.3232 259.6125,726.8545 Q258.8469,728.3857 258.8469,730.6357 Q258.8469,733.1045 259.5109,734.4951 Q260.175,735.8857 260.7063,735.8857 Q261.7688,735.8857 262.5266,735.1201 Q263.2844,734.3545 263.6281,732.6982 L264.9563,733.292 Q264.6281,734.6982 263.7297,735.5889 Q262.8313,736.4795 260.6281,736.4795 Z " fill="#000000"/><text fill="#000000" font-family="sans-serif" font-size="14" lengthAdjust="spacing" textLength="65" x="276.95" y="737.604">Developer</text><line style="stroke:#181818;stroke-width:0.5;" x1="244" x2="348" y1="747.1201" y2="747.1201"/><rect fill="none" height="6" style="stroke:#C82930;stroke-width:1.0;" width="6" x="251" y="759.1802"/><text fill="#000000" font-family="sans-serif" font-size="14" lengthAdjust="spacing" textLength="80" x="263" y="767.1641">name: String</text><rect fill="none" height="6" style="stroke:#C82930;stroke-width:1.0;" width="6" x="251" y="778.3003"/><text fill="#000000" font-family="sans-serif" font-size="14" lengthAdjust="spacing" textLength="78" x="263" y="786.2842">email: String</text><line style="stroke:#181818;stroke-width:0.5;" x1="244" x2="348" y1="793.3604" y2="793.3604"/></g><!--class ProductManager--><g id="elem_ProductManager"><rect codeLine="50" fill="#F1F1F1" height="86.2402" id="ProductManager" rx="2.5" ry="2.5" style="stroke:#181818;stroke-width:0.5;" width="137" x="484.5" y="56.6201"/><ellipse cx="499.5" cy="72.6201" fill="#ADD1B2" rx="11" ry="11" style="stroke:#181818;stroke-width:1.0;"/><path d="M498.0781,77.9795 Q496.2188,77.9795 495.125,76.5889 Q494.0313,75.1982 494.0313,72.2139 Q494.0313,69.6826 495.1953,68.0264 Q496.3594,66.3701 498.3438,66.3701 Q499.8125,66.3701 500.2813,66.4951 Q500.75,66.6982 500.75,66.6982 Q500.75,66.6982 500.75,66.6279 Q500.75,66.5576 501.3594,65.6357 L502.4063,69.292 L501.0781,69.6982 Q500.6094,68.1514 499.9453,67.4873 Q499.2813,66.8232 498.2188,66.8232 Q497.8281,66.8232 497.0625,68.3545 Q496.2969,69.8857 496.2969,72.1357 Q496.2969,74.6045 496.9609,75.9951 Q497.625,77.3857 498.1563,77.3857 Q499.2188,77.3857 499.9766,76.6201 Q500.7344,75.8545 501.0781,74.1982 L502.4063,74.792 Q502.0781,76.1982 501.1797,77.0889 Q500.2813,77.9795 498.0781,77.9795 Z " fill="#000000"/><text fill="#000000" font-family="sans-serif" font-size="14" lengthAdjust="spacing" textLength="105" x="513.5" y="79.104">ProductManager</text><line style="stroke:#181818;stroke-width:0.5;" x1="485.5" x2="620.5" y1="88.6201" y2="88.6201"/><rect fill="none" height="6" style="stroke:#C82930;stroke-width:1.0;" width="6" x="492.5" y="100.6802"/><text fill="#000000" font-family="sans-serif" font-size="14" lengthAdjust="spacing" textLength="80" x="504.5" y="108.6641">name: String</text><rect fill="none" height="6" style="stroke:#C82930;stroke-width:1.0;" width="6" x="492.5" y="119.8003"/><text fill="#000000" font-family="sans-serif" font-size="14" lengthAdjust="spacing" textLength="78" x="504.5" y="127.7842">email: String</text><line style="stroke:#181818;stroke-width:0.5;" x1="485.5" x2="620.5" y1="134.8604" y2="134.8604"/></g><!--class ProjectManager--><g id="elem_ProjectManager"><rect codeLine="55" fill="#F1F1F1" height="86.2402" id="ProjectManager" rx="2.5" ry="2.5" style="stroke:#181818;stroke-width:0.5;" width="132" x="282" y="56.6201"/><ellipse cx="297" cy="72.6201" fill="#ADD1B2" rx="11" ry="11" style="stroke:#181818;stroke-width:1.0;"/><path d="M295.5781,77.9795 Q293.7188,77.9795 292.625,76.5889 Q291.5313,75.1982 291.5313,72.2139 Q291.5313,69.6826 292.6953,68.0264 Q293.8594,66.3701 295.8438,66.3701 Q297.3125,66.3701 297.7813,66.4951 Q298.25,66.6982 298.25,66.6982 Q298.25,66.6982 298.25,66.6279 Q298.25,66.5576 298.8594,65.6357 L299.9063,69.292 L298.5781,69.6982 Q298.1094,68.1514 297.4453,67.4873 Q296.7813,66.8232 295.7188,66.8232 Q295.3281,66.8232 294.5625,68.3545 Q293.7969,69.8857 293.7969,72.1357 Q293.7969,74.6045 294.4609,75.9951 Q295.125,77.3857 295.6563,77.3857 Q296.7188,77.3857 297.4766,76.6201 Q298.2344,75.8545 298.5781,74.1982 L299.9063,74.792 Q299.5781,76.1982 298.6797,77.0889 Q297.7813,77.9795 295.5781,77.9795 Z " fill="#000000"/><text fill="#000000" font-family="sans-serif" font-size="14" lengthAdjust="spacing" textLength="100" x="311" y="79.104">ProjectManager</text><line style="stroke:#181818;stroke-width:0.5;" x1="283" x2="413" y1="88.6201" y2="88.6201"/><rect fill="none" height="6" style="stroke:#C82930;stroke-width:1.0;" width="6" x="290" y="100.6802"/><text fill="#000000" font-family="sans-serif" font-size="14" lengthAdjust="spacing" textLength="80" x="302" y="108.6641">name: String</text><rect fill="none" height="6" style="stroke:#C82930;stroke-width:1.0;" width="6" x="290" y="119.8003"/><text fill="#000000" font-family="sans-serif" font-size="14" lengthAdjust="spacing" textLength="78" x="302" y="127.7842">email: String</text><line style="stroke:#181818;stroke-width:0.5;" x1="283" x2="413" y1="134.8604" y2="134.8604"/></g><!--class User--><g id="elem_User"><rect codeLine="60" fill="#F1F1F1" height="124.4805" id="User" rx="2.5" ry="2.5" style="stroke:#181818;stroke-width:0.5;" width="134" x="384" y="241.1201"/><ellipse cx="431.75" cy="257.1201" fill="#A9DCDF" rx="11" ry="11" style="stroke:#181818;stroke-width:1.0;"/><path d="M432.125,257.1045 L430.1406,257.1045 L429.5469,259.6201 Q429.4844,259.9639 429.4844,260.1514 Q429.4844,260.417 429.5781,260.6826 Q429.6719,260.9482 429.6719,260.9482 L430.3438,260.9482 L430.3438,261.3545 L426.8906,261.3545 L426.8906,260.9482 L427.0781,260.9482 Q427.3438,260.9482 427.5469,260.7842 Q427.75,260.6201 427.8125,260.2295 L430.4063,250.0576 L432.2813,249.4482 L434.9219,260.2295 Q435.0625,260.6201 435.2578,260.7842 Q435.4531,260.9482 435.4531,260.9482 L435.9219,260.9482 L435.9219,261.3545 L432.0625,261.3545 L432.0625,260.9482 L432.3281,260.9482 Q432.7344,260.9482 432.7969,260.7842 Q432.8594,260.6201 432.8594,260.4951 Q432.8594,260.2295 432.7969,260.0264 L432.125,257.1045 Z M430.7344,251.1982 L430.7344,251.1982 L430.2813,256.6982 L432.0625,256.6982 L430.7344,251.1982 Z " fill="#000000"/><text fill="#000000" font-family="sans-serif" font-size="14" font-style="italic" lengthAdjust="spacing" textLength="30" x="452.25" y="263.604">User</text><line style="stroke:#181818;stroke-width:0.5;" x1="385" x2="517" y1="273.1201" y2="273.1201"/><rect fill="none" height="6" style="stroke:#C82930;stroke-width:1.0;" width="6" x="392" y="285.1802"/><text fill="#000000" font-family="sans-serif" font-size="14" lengthAdjust="spacing" textLength="108" x="404" y="293.1641">username: String</text><rect fill="none" height="6" style="stroke:#C82930;stroke-width:1.0;" width="6" x="392" y="304.3003"/><text fill="#000000" font-family="sans-serif" font-size="14" lengthAdjust="spacing" textLength="105" x="404" y="312.2842">password: String</text><line style="stroke:#181818;stroke-width:0.5;" x1="385" x2="517" y1="319.3604" y2="319.3604"/><ellipse cx="395" cy="334.4204" fill="#84BE84" rx="3" ry="3" style="stroke:#038048;stroke-width:1.0;"/><text fill="#000000" font-family="sans-serif" font-size="14" lengthAdjust="spacing" textLength="40" x="404" y="339.4043">login()</text><ellipse cx="395" cy="353.5405" fill="#84BE84" rx="3" ry="3" style="stroke:#038048;stroke-width:1.0;"/><text fill="#000000" font-family="sans-serif" font-size="14" lengthAdjust="spacing" textLength="49" x="404" y="358.5244">logout()</text></g><!--link Product to UserStory--><g id="link_Product_UserStory"><path codeLine="67" d="M622.55,375.2801 C598.99,399.7701 572.17,427.6501 546.84,453.9801 " fill="none" id="Product-UserStory" style="stroke:#181818;stroke-width:1.0;"/><text fill="#000000" font-family="sans-serif" font-size="13" lengthAdjust="spacing" textLength="7" x="608.9171" y="397.6671">1</text><text fill="#000000" font-family="sans-serif" font-size="13" lengthAdjust="spacing" textLength="20" x="533.6804" y="443.2126">0..*</text></g><!--link Sprint to UserStory--><g id="link_Sprint_UserStory"><path codeLine="68" d="M297.65,394.2001 C316.31,413.6001 336.14,434.2101 355.13,453.9601 " fill="none" id="Sprint-UserStory" style="stroke:#181818;stroke-width:1.0;"/><text fill="#000000" font-family="sans-serif" font-size="13" lengthAdjust="spacing" textLength="7" x="297.0162" y="416.7571">1</text><text fill="#000000" font-family="sans-serif" font-size="13" lengthAdjust="spacing" textLength="20" x="326.6935" y="443.191">0..*</text></g><!--link Team to Developer--><g id="link_Team_Developer"><path codeLine="69" d="M188.62,616.6201 C212.88,648.3601 241.93,686.3701 263.69,714.8401 " fill="none" id="Team-Developer" style="stroke:#181818;stroke-width:1.0;"/><text fill="#000000" font-family="sans-serif" font-size="13" lengthAdjust="spacing" textLength="7" x="186.8753" y="640.1269">1</text><text fill="#000000" font-family="sans-serif" font-size="13" lengthAdjust="spacing" textLength="20" x="236.6824" y="704.2046">0..*</text></g><!--link UserStory to Developer--><g id="link_UserStory_Developer"><path codeLine="70" d="M374.41,655.1901 C358.24,676.2101 342.02,697.3001 328.56,714.7901 " fill="none" id="UserStory-Developer" style="stroke:#181818;stroke-width:1.0;"/><text fill="#000000" font-family="sans-serif" font-size="13" lengthAdjust="spacing" textLength="22" x="345.9776" y="678.127">0..1</text><text fill="#000000" font-family="sans-serif" font-size="13" lengthAdjust="spacing" textLength="22" x="310.1309" y="704.1463">0..1</text></g><!--link ProductManager to User--><g id="link_ProductManager_User"><path codeLine="71" d="M531.62,142.8601 C519.89,166.0401 504.95,195.5401 491.14,222.8301 " fill="none" id="ProductManager-to-User" style="stroke:#181818;stroke-width:1.0;"/><polygon fill="none" points="497.31,226.1301,482.03,240.8101,484.82,219.8101,497.31,226.1301" style="stroke:#181818;stroke-width:1.0;"/></g><!--link ProjectManager to User--><g id="link_ProjectManager_User"><path codeLine="72" d="M369.59,142.8601 C381.44,166.0401 396.52,195.5401 410.47,222.8301 " fill="none" id="ProjectManager-to-User" style="stroke:#181818;stroke-width:1.0;"/><polygon fill="none" points="416.79,219.8201,419.66,240.8101,404.33,226.1901,416.79,219.8201" style="stroke:#181818;stroke-width:1.0;"/></g><!--link ProductManager to Product--><g id="link_ProductManager_Product"><path codeLine="73" d="M581.93,142.8601 C599.4,168.3701 622.11,201.5201 642.28,230.9801 " fill="none" id="ProductManager-Product" style="stroke:#181818;stroke-width:1.0;"/><text fill="#000000" font-family="sans-serif" font-size="13" lengthAdjust="spacing" textLength="20" x="564.8287" y="165.7201">0..*</text><text fill="#000000" font-family="sans-serif" font-size="13" lengthAdjust="spacing" textLength="7" x="629.5684" y="220.1212">1</text></g><!--link ProjectManager to Sprint--><g id="link_ProjectManager_Sprint"><path codeLine="74" d="M319.28,142.8601 C305.63,162.9401 288.75,187.7701 272.41,211.7901 " fill="none" id="ProjectManager-Sprint" style="stroke:#181818;stroke-width:1.0;"/><text fill="#000000" font-family="sans-serif" font-size="13" lengthAdjust="spacing" textLength="20" x="293.351" y="165.7201">0..*</text><text fill="#000000" font-family="sans-serif" font-size="13" lengthAdjust="spacing" textLength="7" x="270.3866" y="201.1482">1</text></g></g></svg>